<?xml version="1.0" encoding="UTF-8"?>
<svg version="1.1" xmlns="http://www.w3.org/2000/svg" width="1024" height="1024">
<path d="M0 0 C337.92 0 675.84 0 1024 0 C1024 337.92 1024 675.84 1024 1024 C686.08 1024 348.16 1024 0 1024 C0 686.08 0 348.16 0 0 Z " fill="#FDFDFD" transform="translate(0,0)"/>
<path d="M0 0 C2.16860256 0.80312897 4.00646431 1.7648983 5.98779297 2.95751953 C6.76807861 3.41876221 7.54836426 3.88000488 8.35229492 4.35522461 C9.2039624 4.86077881 10.05562988 5.36633301 10.93310547 5.88720703 C29.54784898 16.72572992 49.08559356 26.67951458 69.05810547 34.76220703 C70.02264648 35.15827148 70.9871875 35.55433594 71.98095703 35.96240234 C96.8413465 46.13357333 122.00773193 54.24961365 148.05810547 60.76220703 C148.05810547 76.27220703 148.05810547 91.78220703 148.05810547 107.76220703 C149.37810547 107.10220703 150.69810547 106.44220703 152.05810547 105.76220703 C164.95777884 104.42561437 164.95777884 104.42561437 169.80810547 107.57470703 C173.38431436 111.05157679 174.45811101 113.42452371 174.74560547 118.32470703 C174.63390284 124.93909848 172.24034871 127.94206776 167.61669922 132.45751953 C166.77236328 133.21806641 165.92802734 133.97861328 165.05810547 134.76220703 C164.32720703 135.46087891 163.59630859 136.15955078 162.84326172 136.87939453 C159.73130682 139.77188064 156.9031954 142.32114416 153.11669922 144.29736328 C147.52134513 147.38037511 147.52134513 147.38037511 144.42871094 152.78027344 C143.50234032 158.06314992 143.39253728 163.40003776 143.21484375 168.75048828 C142.89025759 174.98739627 141.92011953 181.16089597 141.07373047 187.34423828 C140.24489869 193.59475251 140.24489869 193.59475251 140.03076172 199.88720703 C140.09371782 207.65778909 140.09371782 207.65778909 136.76513672 211.20751953 C133.94343981 213.33236012 131.16926202 215.09360788 128.05810547 216.76220703 C127.01009766 217.32681641 125.96208984 217.89142578 124.88232422 218.47314453 C122.05810547 219.76220703 122.05810547 219.76220703 119.05810547 219.76220703 C118.94329834 219.07707031 118.82849121 218.39193359 118.71020508 217.68603516 C118.16652429 214.53922032 117.58147208 211.40142999 116.99560547 208.26220703 C116.81578125 207.18455078 116.63595703 206.10689453 116.45068359 204.99658203 C114.9894229 197.38874856 112.6219676 193.0853932 107.05810547 187.76220703 C106.54103027 187.16537109 106.02395508 186.56853516 105.49121094 185.95361328 C102.92016426 183.04597186 101.60793312 181.82329899 97.68310547 181.38720703 C96.81685547 181.51095703 95.95060547 181.63470703 95.05810547 181.76220703 C95.78126953 182.55884766 95.78126953 182.55884766 96.51904297 183.37158203 C97.46650391 184.43119141 97.46650391 184.43119141 98.43310547 185.51220703 C99.37283203 186.55634766 99.37283203 186.55634766 100.33154297 187.62158203 C101.99187025 189.68008734 103.1913381 191.266679 104.05810547 193.76220703 C103.73986459 195.43182125 103.40338037 197.09797323 103.05810547 198.76220703 C102.84962712 200.96399197 102.67407685 203.16902492 102.52294922 205.37548828 C102.39243164 207.24624023 102.39243164 207.24624023 102.25927734 209.15478516 C102.12875977 211.09514648 102.12875977 211.09514648 101.99560547 213.07470703 C101.90472656 214.38761719 101.81384766 215.70052734 101.72021484 217.05322266 C101.49662691 220.28936379 101.27603096 223.52568046 101.05810547 226.76220703 C97.72572465 225.09601662 96.99781289 221.37591122 95.62060547 218.07470703 C95.01926998 216.65348617 94.41642585 215.2329026 93.81201172 213.81298828 C93.37489868 212.77029785 93.37489868 212.77029785 92.92895508 211.70654297 C92.00237353 209.54907131 92.00237353 209.54907131 90.34716797 206.79736328 C88.61895802 202.7282144 88.72635512 199.25170491 88.87060547 194.88720703 C88.88414062 194.10345703 88.89767578 193.31970703 88.91162109 192.51220703 C88.94668758 190.59523921 89.00048475 188.67862952 89.05810547 186.76220703 C88.39810547 186.76220703 87.73810547 186.76220703 87.05810547 186.76220703 C86.98462891 188.17373047 86.98462891 188.17373047 86.90966797 189.61376953 C86.83490234 190.85900391 86.76013672 192.10423828 86.68310547 193.38720703 C86.61349609 194.61697266 86.54388672 195.84673828 86.47216797 197.11376953 C86.06185735 200.72914803 85.6450937 203.48584424 84.05810547 206.76220703 C81.34326172 208.66064453 81.34326172 208.66064453 78.12060547 210.13720703 C77.05970703 210.63994141 75.99880859 211.14267578 74.90576172 211.66064453 C72.05810547 212.76220703 72.05810547 212.76220703 69.05810547 212.76220703 C66.5542102 205.96591987 65.15504364 199.24708972 63.99951172 192.11767578 C62.19604656 185.68955725 56.35085574 182.62229232 51.18310547 178.82470703 C46.3539066 175.26328486 41.62854646 171.65209646 37.05810547 167.76220703 C38.34243173 163.90922824 40.0723429 162.91739953 43.30810547 160.51220703 C44.26201172 159.78517578 45.21591797 159.05814453 46.19873047 158.30908203 C49.05810547 156.76220703 49.05810547 156.76220703 51.79248047 156.96533203 C54.05810547 157.76220703 54.05810547 157.76220703 56.05810547 158.76220703 C56.05810547 158.10220703 56.05810547 157.44220703 56.05810547 156.76220703 C55.48060547 156.49408203 54.90310547 156.22595703 54.30810547 155.94970703 C52.05810547 154.76220703 52.05810547 154.76220703 50.05810547 153.07470703 C48.2132652 151.57270466 48.2132652 151.57270466 46.32373047 151.89501953 C43.07515525 153.1384397 40.52367612 155.2035735 37.80810547 157.32470703 C36.97666016 157.96182617 36.97666016 157.96182617 36.12841797 158.61181641 C34.76721136 159.65619044 33.41204714 160.70843167 32.05810547 161.76220703 C28.82761799 160.34228153 26.67568059 158.62601316 24.19482422 156.12939453 C23.47230469 155.40494141 22.74978516 154.68048828 22.00537109 153.93408203 C20.88678711 152.79712891 20.88678711 152.79712891 19.74560547 151.63720703 C19.01148438 150.90244141 18.27736328 150.16767578 17.52099609 149.41064453 C13.37325965 145.22978508 9.40614784 140.94519255 5.56079102 136.48535156 C3.82452368 134.49435647 2.00751816 132.6106113 0.12060547 130.76220703 C-0.46591797 130.18470703 -1.05244141 129.60720703 -1.65673828 129.01220703 C-2.08083984 128.59970703 -2.50494141 128.18720703 -2.94189453 127.76220703 C-6.61860037 129.27272726 -8.66063915 131.41106853 -11.25439453 134.38720703 C-12.04716797 135.28955078 -12.83994141 136.19189453 -13.65673828 137.12158203 C-14.41083984 137.99298828 -15.16494141 138.86439453 -15.94189453 139.76220703 C-17.06629725 141.05439367 -18.19124787 142.34610387 -19.31689453 143.63720703 C-19.87376953 144.27658203 -20.43064453 144.91595703 -21.00439453 145.57470703 C-23.8795165 148.82081248 -26.81815091 152.0080936 -29.75390625 155.19921875 C-33.40480569 159.16921353 -37.01638419 163.17290376 -40.61767578 167.18798828 C-43.26999354 170.12559737 -45.94880414 173.03792985 -48.62939453 175.94970703 C-52.49123543 180.14709914 -56.27081523 184.39659922 -59.94189453 188.76220703 C-62.96709717 187.37565582 -65.36126786 185.74246746 -67.91064453 183.60986328 C-68.64669922 182.99820313 -69.38275391 182.38654297 -70.14111328 181.75634766 C-70.90037109 181.11890625 -71.65962891 180.48146484 -72.44189453 179.82470703 C-73.95168391 178.56484034 -75.46208065 177.30570107 -76.97314453 176.04736328 C-77.63894531 175.48927979 -78.30474609 174.93119629 -78.99072266 174.35620117 C-80.93543137 172.76748706 -82.92255478 171.2544811 -84.94189453 169.76220703 C-89.27180765 171.33858202 -91.67428105 174.68957245 -94.50439453 178.13720703 C-95.57034872 179.40951207 -96.63809415 180.68031828 -97.70751953 181.94970703 C-98.24570312 182.58908203 -98.78388672 183.22845703 -99.33837891 183.88720703 C-101.74355592 186.69959429 -104.23929532 189.42323542 -106.75439453 192.13720703 C-109.69115506 195.31127634 -112.61026283 198.49338754 -115.44189453 201.76220703 C-118.47691641 205.24550091 -121.5383343 208.70360187 -124.62939453 212.13720703 C-125.09345703 212.66185547 -125.55751953 213.18650391 -126.03564453 213.72705078 C-128.50289728 216.45027211 -130.6172031 218.24252449 -133.94189453 219.76220703 C-141.72884173 189.65289089 -141.72884173 189.65289089 -143.94189453 174.76220703 C-144.12236328 173.67166016 -144.30283203 172.58111328 -144.48876953 171.45751953 C-146.05482743 161.1832306 -146.61041563 150.82326243 -147.24487305 140.45874023 C-147.3214917 139.2105249 -147.39811035 137.96230957 -147.47705078 136.67626953 C-147.54287354 135.56203613 -147.60869629 134.44780273 -147.67651367 133.29980469 C-147.86873405 130.73745578 -148.13477273 128.24815071 -148.46484375 125.70532227 C-149.18328185 119.40262494 -149.06537922 113.09357691 -149.03955078 106.75830078 C-149.03813583 105.43927261 -149.03672089 104.12024445 -149.03526306 102.76124573 C-149.03147697 99.28431237 -149.02168089 95.80742196 -149.01055908 92.33050537 C-149.00026013 88.77063579 -148.99574741 85.21075915 -148.99072266 81.65087891 C-148.98005441 74.68797084 -148.96302598 67.72509101 -148.94189453 60.76220703 C-147.52500832 60.27934843 -146.10717792 59.79925993 -144.68896484 59.3203125 C-143.89951477 59.05266083 -143.1100647 58.78500916 -142.29669189 58.50924683 C-139.5305942 57.63172544 -136.75470188 56.99916817 -133.921875 56.3828125 C-107.34891511 50.47706381 -11.94852799 -1.46314637 0 0 Z " fill="#45B1B8" transform="translate(512.94189453125,224.23779296875)"/>
<path d="M0 0 C2.10045751 0.72992329 3.74488498 1.60203692 5.6159668 2.79833984 C6.30142578 3.22953125 6.98688477 3.66072266 7.69311523 4.10498047 C8.43335938 4.57484375 9.17360352 5.04470703 9.9362793 5.52880859 C35.38453586 21.35447573 62.28200882 34.53392166 90.0612793 45.71630859 C91.08012207 46.12655273 92.09896484 46.53679687 93.14868164 46.95947266 C107.26903444 52.58385521 121.52622734 57.05997903 136.2121582 60.95507812 C138.83839737 61.65675882 141.45682866 62.38043415 144.07299805 63.11865234 C144.84853027 63.3374707 145.6240625 63.55628906 146.4230957 63.78173828 C147.14932129 63.98702148 147.87554688 64.19230469 148.6237793 64.40380859 C156.73513794 66.68694434 164.87171408 68.66891729 173.0612793 70.71630859 C173.0612793 90.18630859 173.0612793 109.65630859 173.0612793 129.71630859 C170.7512793 129.05630859 168.4412793 128.39630859 166.0612793 127.71630859 C160.1212793 127.22130859 160.1212793 127.22130859 154.0612793 126.71630859 C154.0612793 112.85630859 154.0612793 98.99630859 154.0612793 84.71630859 C150.1012793 84.22130859 150.1012793 84.22130859 146.0612793 83.71630859 C98.90026253 73.72124467 42.89079456 52.87074628 3.68237305 24.28662109 C1.30103932 22.49453603 1.30103932 22.49453603 -0.7824707 22.94482422 C-3.39288441 23.87880376 -5.6527855 25.11125988 -8.05981445 26.48974609 C-9.56970947 27.34753662 -9.56970947 27.34753662 -11.11010742 28.22265625 C-12.1879248 28.83931152 -13.26574219 29.4559668 -14.3762207 30.09130859 C-50.68644533 50.5963356 -87.99910763 66.6171581 -127.9387207 78.71630859 C-128.82011719 78.9834668 -129.70151367 79.250625 -130.60961914 79.52587891 C-133.0277785 80.2501181 -135.45002267 80.95702377 -137.8762207 81.65380859 C-138.55499268 81.85337158 -139.23376465 82.05293457 -139.93310547 82.25854492 C-143.68272131 83.30059527 -147.31258342 83.9112261 -151.19091797 84.27319336 C-152.08263199 84.35779312 -152.97434601 84.44239288 -153.89308167 84.52955627 C-154.56814255 84.59118454 -155.24320343 84.65281281 -155.9387207 84.71630859 C-154.65723589 145.57924841 -154.65723589 145.57924841 -148.3347168 206.07519531 C-147.92341699 208.8183774 -147.55045134 211.5653963 -147.17700195 214.31396484 C-142.41298054 247.50825617 -131.95848735 282.13280194 -113.37231445 310.24755859 C-111.9387207 312.71630859 -111.9387207 312.71630859 -111.9387207 315.71630859 C-114.18677073 316.38952144 -116.43724294 317.05464982 -118.6887207 317.71630859 C-119.94168945 318.08755859 -121.1946582 318.45880859 -122.4855957 318.84130859 C-125.9387207 319.71630859 -125.9387207 319.71630859 -129.9387207 319.71630859 C-144.59716099 293.87676843 -156.41788806 266.79861569 -162.18481445 237.48583984 C-162.68481913 234.98581648 -163.2537685 232.4985432 -163.89233398 230.03027344 C-164.98438738 225.69316511 -165.75147895 221.34132341 -166.43481445 216.92333984 C-166.6267765 215.69101372 -166.6267765 215.69101372 -166.82261658 214.43379211 C-168.0613868 206.2615622 -168.96706549 198.06678647 -169.76416016 189.84106445 C-169.99758223 187.44121627 -170.24190803 185.04266755 -170.48754883 182.64404297 C-171.02044409 177.338822 -171.49205098 172.02944171 -171.9387207 166.71630859 C-172.03012329 165.63478516 -172.12152588 164.55326172 -172.21569824 163.43896484 C-173.83946814 143.61099989 -174.19884568 123.94093514 -174.0760498 104.0612793 C-174.05504043 100.27834459 -174.04634244 96.4953794 -174.03637695 92.71240234 C-174.01536334 85.38029331 -173.9815537 78.04832627 -173.9387207 70.71630859 C-170.62414476 69.36257234 -167.46052554 68.27727732 -163.96606445 67.48974609 C-162.99862305 67.26697998 -162.03118164 67.04421387 -161.03442383 66.81469727 C-159.9922168 66.575979 -158.95000977 66.33726074 -157.8762207 66.09130859 C-126.01021695 58.58090504 -95.66702162 48.42848739 -65.9387207 34.71630859 C-64.9074707 34.24322266 -63.8762207 33.77013672 -62.8137207 33.28271484 C-42.66384933 23.98858667 -22.71359267 13.86079219 -4.51293945 1.09521484 C-1.9387207 -0.28369141 -1.9387207 -0.28369141 0 0 Z " fill="#53B2B8" transform="translate(512.938720703125,195.28369140625)"/>
<path d="M0 0 C0.66 0 1.32 0 2 0 C2.07683619 4.94953134 1.81908023 9.77567986 1.25 14.6875 C1.16274658 15.44514648 1.07549316 16.20279297 0.9855957 16.98339844 C-3.57210938 55.42697887 -10.44444241 95.37525119 -28.88916016 129.90478516 C-30.10015345 132.18890482 -31.27601189 134.48922544 -32.44921875 136.79296875 C-37.13327495 145.93485484 -42.01201464 154.63621478 -48 163 C-48.65742187 163.93070313 -49.31484375 164.86140625 -49.9921875 165.8203125 C-64.61214298 186.24274059 -81.95656306 205.74955885 -102 221 C-103.27174597 221.99883911 -104.54250034 222.99894145 -105.8125 224 C-121.56313081 236.33218923 -138.07354545 247.02285482 -155.60595703 256.65185547 C-157.21812121 257.55970481 -158.80809667 258.50798921 -160.37451172 259.49267578 C-163.96045694 261.69398662 -166.21891715 262.97460605 -170.484375 263.11328125 C-175.09004145 261.65482021 -179.06611598 259.58116244 -183.25 257.1875 C-184.12261475 256.69612549 -184.99522949 256.20475098 -185.89428711 255.69848633 C-206.80497253 243.80359215 -226.53634754 230.33142953 -244.52001953 214.31689453 C-245.86829241 213.11719412 -247.22845618 211.93089108 -248.58984375 210.74609375 C-259.44108891 201.19629453 -270.67458059 190.8934563 -279 179 C-279 178.34 -279 177.68 -279 177 C-276.77332235 176.32506659 -274.54354023 175.66036956 -272.3125 175 C-271.07113281 174.62875 -269.82976562 174.2575 -268.55078125 173.875 C-262.72034692 172.4382373 -262.72034692 172.4382373 -260 173 C-257.86232153 174.93167314 -256.0965528 176.75802133 -254.25 178.9375 C-253.18490472 180.14048489 -252.11849044 181.34230323 -251.05078125 182.54296875 C-250.53080566 183.13513184 -250.01083008 183.72729492 -249.47509766 184.33740234 C-242.95988871 191.68076099 -235.69359049 197.93210763 -228 204 C-227.09378906 204.73476563 -226.18757813 205.46953125 -225.25390625 206.2265625 C-211.13250056 217.44117153 -195.83117089 227.29952028 -180.375 236.5625 C-179.6123584 237.03357178 -178.8497168 237.50464355 -178.06396484 237.98999023 C-174.85079284 239.86536695 -172.75510309 240.98823216 -168.9921875 241.046875 C-164.98936179 239.64640856 -161.4261383 237.78958345 -157.75 235.6875 C-156.96931152 235.24672119 -156.18862305 234.80594238 -155.38427734 234.35180664 C-131.82484949 220.84109971 -109.3283745 204.12798385 -90.59375 184.43359375 C-89 183 -89 183 -87 183 C-86.75765625 182.43410156 -86.5153125 181.86820313 -86.265625 181.28515625 C-84.75459147 178.55690126 -82.92256524 176.67840752 -80.75 174.4375 C-67.84588441 160.59280924 -57.79704765 144.68635745 -49 128 C-48.62681641 127.29230469 -48.25363281 126.58460938 -47.86914062 125.85546875 C-33.31006548 97.72067063 -25.83808196 67.49827876 -21.078125 36.40234375 C-20.88855225 35.18998047 -20.69897949 33.97761719 -20.50366211 32.72851562 C-20.15146438 30.12126226 -19.88564604 27.60632016 -19.71704102 24.99023438 C-18.81141628 13.86222476 -18.81141628 13.86222476 -14.12109375 9.7265625 C-12.59133514 8.64673289 -11.0286376 7.61215476 -9.4375 6.625 C-8.64408203 6.08101563 -7.85066406 5.53703125 -7.03320312 4.9765625 C-5.58371705 3.98630728 -4.12128201 3.01453683 -2.64233398 2.06884766 C-1.03338108 1.1023635 -1.03338108 1.1023635 0 0 Z " fill="#44B0B8" transform="translate(682,365)"/>
<path d="M0 0 C0.73334822 3.66674109 0.97380533 5.45292672 0 9 C-2.17567942 11.6442873 -4.45022573 13.88833774 -6.95361328 16.20849609 C-13.09236975 21.90202799 -18.00405692 28.30610141 -23 35 C-23.43054688 35.56444824 -23.86109375 36.12889648 -24.3046875 36.71044922 C-39.13235842 56.1717673 -49.78415932 76.96488407 -47 102 C-44.86234306 112.4972092 -38.9429828 120.21123631 -30.41015625 126.46484375 C-11.41322405 138.56499667 17.56485883 135.927801 38.6328125 131.51953125 C107.22701337 115.7234957 171.27757638 83.07457728 226.1796875 39.2421875 C227.11039063 38.50226563 228.04109375 37.76234375 229 37 C229.74507812 36.40445313 230.49015625 35.80890625 231.2578125 35.1953125 C233 34 233 34 235 34 C235.70045456 35.91197039 236.384919 37.82980435 237.0625 39.75 C237.44535156 40.81734375 237.82820313 41.8846875 238.22265625 42.984375 C239.32546814 47.26262014 239.32546814 47.26262014 238 50 C197.88092296 90.78912425 132.90992629 120.56849504 79.66210938 138.11157227 C77.85464195 138.71477971 76.05389638 139.33843603 74.25976562 139.98022461 C66.43286468 142.7333224 58.54608126 144.56881312 50.43505859 146.23754883 C48.23750299 146.69007341 46.04252219 147.15376267 43.84765625 147.61914062 C32.46596065 150.00399649 21.80764092 151.23108493 10.17626953 151.29516602 C8.73964529 151.30660873 7.30306091 151.32693648 5.86669922 151.35668945 C-11.72533143 151.71922382 -31.19473736 148.33719382 -44.484375 135.71875 C-57.18584333 121.31502303 -58.89176534 107.5642455 -58.20019531 88.97900391 C-56.42327903 62.53762283 -36.85755741 38.17208175 -20 19 C-19.21496094 18.1028125 -18.42992187 17.205625 -17.62109375 16.28125 C-3.17399691 0 -3.17399691 0 0 0 Z " fill="#2D969F" transform="translate(337,393)"/>
<path d="M0 0 C1.94825257 0.83921267 3.67096938 1.75921884 5.45849609 2.90209961 C6.14395508 3.33329102 6.82941406 3.76448242 7.53564453 4.20874023 C8.27588867 4.67860352 9.01613281 5.1484668 9.77880859 5.63256836 C35.22706516 21.45823549 62.12453811 34.63768142 89.90380859 45.82006836 C90.92265137 46.2303125 91.94149414 46.64055664 92.99121094 47.06323242 C107.11156374 52.68761498 121.36875664 57.1637388 136.0546875 61.05883789 C138.68092667 61.76051859 141.29935795 62.48419392 143.91552734 63.22241211 C144.69105957 63.44123047 145.4665918 63.66004883 146.265625 63.88549805 C146.99185059 64.09078125 147.71807617 64.29606445 148.46630859 64.50756836 C156.57766724 66.79070411 164.71424338 68.77267706 172.90380859 70.82006836 C172.90380859 90.29006836 172.90380859 109.76006836 172.90380859 129.82006836 C170.59380859 129.16006836 168.28380859 128.50006836 165.90380859 127.82006836 C161.94380859 127.49006836 157.98380859 127.16006836 153.90380859 126.82006836 C153.90380859 112.96006836 153.90380859 99.10006836 153.90380859 84.82006836 C151.26380859 84.49006836 148.62380859 84.16006836 145.90380859 83.82006836 C98.74279182 73.82500444 42.73332385 52.97450605 3.52490234 24.39038086 C1.14356862 22.59829579 1.14356862 22.59829579 -0.93994141 23.04858398 C-3.55035511 23.98256353 -5.81025621 25.21501965 -8.21728516 26.59350586 C-9.22388184 27.16536621 -10.23047852 27.73722656 -11.26757812 28.32641602 C-12.34539551 28.94307129 -13.42321289 29.55972656 -14.53369141 30.19506836 C-60.44925512 56.12440049 -60.44925512 56.12440049 -85.09619141 63.82006836 C-85.42619141 63.16006836 -85.75619141 62.50006836 -86.09619141 61.82006836 C-85.06570679 61.36905762 -85.06570679 61.36905762 -84.0144043 60.90893555 C-61.78180618 51.15718178 -39.54391422 41.34507336 -18.46337891 29.24975586 C-15.76596132 27.7078711 -13.09431298 26.34012606 -10.22900391 25.14038086 C-6.87694786 23.61815306 -4.57768208 22.54446886 -2.09619141 19.82006836 C-0.47400491 14.62359585 -0.76098329 9.18984459 -1.09619141 3.82006836 C-5.92109412 5.7780883 -10.2228793 7.99739327 -14.65869141 10.75756836 C-28.69529198 19.31612411 -43.19346592 27.02768034 -57.96154785 34.24182129 C-59.76001099 35.12099229 -61.55459797 36.00807818 -63.34912109 36.89526367 C-64.44514648 37.42345703 -65.54117187 37.95165039 -66.67041016 38.49584961 C-67.64582764 38.96933838 -68.62124512 39.44282715 -69.6262207 39.93066406 C-72.09619141 40.82006836 -72.09619141 40.82006836 -75.09619141 39.82006836 C-71.86025961 37.6627805 -68.49792047 36.04832803 -64.99072266 34.39819336 C-63.52814724 33.70277292 -62.06592177 33.00661614 -60.60400391 32.30981445 C-59.83733398 31.94458679 -59.07066406 31.57935913 -58.28076172 31.20306396 C-41.73971312 23.30239792 -25.38322881 15.08862693 -10.14306641 4.83276367 C-9.16853516 4.18146484 -8.19400391 3.53016602 -7.18994141 2.85913086 C-6.31015625 2.25536621 -5.43037109 1.65160156 -4.52392578 1.02954102 C-2.09619141 -0.17993164 -2.09619141 -0.17993164 0 0 Z " fill="#40BDC2" transform="translate(513.09619140625,195.179931640625)"/>
<path d="M0 0 C0.87537415 0.00359528 1.75074829 0.00719055 2.65264893 0.01089478 C4.02812141 0.01067574 4.02812141 0.01067574 5.43138123 0.01045227 C8.47773564 0.01115177 11.52402973 0.01894589 14.57037354 0.02676392 C16.67644721 0.02862796 18.78252132 0.03005193 20.88859558 0.03105164 C26.44364612 0.03487786 31.99867069 0.04470903 37.55371094 0.05575562 C43.21746469 0.0659675 48.88122262 0.07054878 54.54498291 0.07559204 C65.66673914 0.0863312 76.78847606 0.10340887 87.91021729 0.12442017 C87.29104475 1.70807572 86.66826617 3.29032165 86.04400635 4.87197876 C85.69759094 5.75324432 85.35117554 6.63450989 84.9942627 7.54248047 C83.49202329 11.12045933 81.64396474 14.42113277 79.66021729 17.74942017 C79.29670166 18.37203735 78.93318604 18.99465454 78.55865479 19.63613892 C77.68192629 21.13580607 76.79699497 22.63067328 75.91021729 24.12442017 C75.25021729 24.12442017 74.59021729 24.12442017 73.91021729 24.12442017 C73.45582275 23.11121704 73.45582275 23.11121704 72.99224854 22.07754517 C70.21540149 16.164997 67.93206437 12.13534371 61.91021729 9.12442017 C60.53675379 8.97437044 59.15736469 8.87604011 57.77740479 8.80801392 C56.97174072 8.76611938 56.16607666 8.72422485 55.33599854 8.68106079 C54.49424072 8.64174438 53.65248291 8.60242798 52.78521729 8.56192017 C51.9357251 8.51873657 51.08623291 8.47555298 50.21099854 8.43106079 C48.11093506 8.32487781 46.01059781 8.2241352 43.91021729 8.12442017 C43.58021729 11.75442017 43.25021729 15.38442017 42.91021729 19.12442017 C43.57021729 19.45442017 44.23021729 19.78442017 44.91021729 20.12442017 C45.13709229 19.54692017 45.36396729 18.96942017 45.59771729 18.37442017 C47.32245353 15.41772946 48.9912454 13.91560746 51.91021729 12.12442017 C56.88755165 12.12442017 60.08067812 14.06078884 63.91021729 17.12442017 C65.47271729 19.43692017 65.47271729 19.43692017 66.91021729 22.12442017 C68.26202104 23.8590356 69.62436531 25.58073845 71.01959229 27.28067017 C72.31259205 29.95740652 71.83344579 31.32966962 70.91021729 34.12442017 C69.28131104 36.80020142 69.28131104 36.80020142 67.34771729 39.43692017 C66.70705322 40.31992798 66.06638916 41.20293579 65.40631104 42.11270142 C64.9126001 42.7765686 64.41888916 43.44043579 63.91021729 44.12442017 C55.65457356 42.96482241 55.65457356 42.96482241 52.97271729 39.93692017 C51.91021729 37.12442017 51.91021729 37.12442017 51.28521729 33.56192017 C49.72635993 29.66477677 49.24523397 29.42767962 45.59771729 27.81192017 C44.04319954 27.22772237 42.48099909 26.66336082 40.91021729 26.12442017 C39.89959229 25.71192017 38.88896729 25.29942017 37.84771729 24.87442017 C37.20834229 24.62692017 36.56896729 24.37942017 35.91021729 24.12442017 C36.40521729 27.58942017 36.40521729 27.58942017 36.91021729 31.12442017 C37.63209229 31.39254517 38.35396729 31.66067017 39.09771729 31.93692017 C44.48983512 34.21359214 44.48983512 34.21359214 46.91021729 36.12442017 C47.57427979 37.92129517 47.57427979 37.92129517 48.16021729 39.99942017 C49.38160001 43.91651743 51.02142721 45.17168768 54.59771729 47.12442017 C56.02353249 47.81572451 57.45773747 48.4910537 58.91021729 49.12442017 C57.92021729 50.77442017 56.93021729 52.42442017 55.91021729 54.12442017 C52.87836819 53.65798184 51.67418773 52.93230309 49.22271729 50.93692017 C45.07438753 48.66707936 43.19996463 49.17632408 38.76568604 50.25332642 C38.15338135 50.54078735 37.54107666 50.82824829 36.91021729 51.12442017 C36.58021729 52.11442017 36.25021729 53.10442017 35.91021729 54.12442017 C37.42615479 53.96973267 37.42615479 53.96973267 38.97271729 53.81192017 C44.1220847 54.22060012 45.9631717 55.90234214 49.91021729 59.12442017 C49.09771729 61.06192017 49.09771729 61.06192017 47.91021729 63.12442017 C46.42521729 63.61942017 46.42521729 63.61942017 44.91021729 64.12442017 C44.91021729 63.46442017 44.91021729 62.80442017 44.91021729 62.12442017 C42.27021729 62.12442017 39.63021729 62.12442017 36.91021729 62.12442017 C36.25021729 63.44442017 35.59021729 64.76442017 34.91021729 66.12442017 C36.89021729 66.78442017 38.87021729 67.44442017 40.91021729 68.12442017 C39.83620621 71.03959308 39.13211553 72.90252192 36.91021729 75.12442017 C32.83840052 74.67601406 28.9848796 73.24960443 25.09771729 71.99942017 C17.98521312 69.7345777 10.8312458 67.63320557 3.66021729 65.56192017 C-21.63473975 58.20820955 -21.63473975 58.20820955 -26.08978271 54.12442017 C-26.77728271 51.62442017 -26.77728271 51.62442017 -26.08978271 49.12442017 C-22.39370184 45.59419741 -18.53648196 43.97123424 -13.74212646 42.46817017 C-12.3182941 41.99813093 -10.89446611 41.52807845 -9.47064209 41.05801392 C-7.24437747 40.33748422 -5.01683291 39.6210672 -2.78875732 38.90615845 C-0.62401058 38.20754539 1.53564864 37.49462881 3.69537354 36.78067017 C4.35900406 36.57325195 5.02263458 36.36583374 5.70637512 36.15213013 C9.68343451 34.83319149 12.29419645 33.42912294 14.91021729 30.12442017 C15.55634381 27.57044899 15.55634381 27.57044899 14.91021729 25.12442017 C9.11319948 19.32740236 -0.92055308 16.42630169 -8.39544678 13.28359985 C-9.2446167 12.91782837 -10.09378662 12.55205688 -10.96868896 12.17520142 C-11.73769531 11.85204956 -12.50670166 11.52889771 -13.29901123 11.19595337 C-15.08978271 10.12442017 -15.08978271 10.12442017 -16.08978271 7.12442017 C-15.45169678 6.70289673 -14.81361084 6.28137329 -14.15618896 5.84707642 C-13.3298999 5.29922485 -12.50361084 4.75137329 -11.65228271 4.18692017 C-10.82857178 3.64164673 -10.00486084 3.09637329 -9.15618896 2.53457642 C-5.76830819 0.22261997 -4.30499651 0.00746925 0 0 Z " fill="#3AA1AA" transform="translate(547.0897827148438,474.8755798339844)"/>
<path d="M0 0 C1.16015625 -0.03867187 1.16015625 -0.03867187 2.34375 -0.078125 C5.03693338 0.33170725 5.86857567 1.10685561 7.5 3.25 C8.21557985 6.32699336 8.09658094 8.25122967 6.45703125 10.99609375 C-0.98229455 20.19484879 -11.75127947 27.65030925 -21.5 34.25 C-22.16 34.25 -22.82 34.25 -23.5 34.25 C-23.48042236 34.84361328 -23.46084473 35.43722656 -23.44067383 36.04882812 C-23.26812727 46.26650555 -24.09951591 56.41228383 -24.93432617 66.58886719 C-25.10419338 68.70983205 -25.26390004 70.83163335 -25.41381836 72.95410156 C-25.63242633 76.04452043 -25.88108753 79.13119997 -26.13671875 82.21875 C-26.22925179 83.64060608 -26.22925179 83.64060608 -26.32365417 85.09118652 C-26.91247063 91.6062961 -26.91247063 91.6062961 -29.89770508 94.87695312 C-32.5 96.25 -32.5 96.25 -35.5 96.25 C-36.46049033 91.99996466 -37.42076803 87.74988134 -38.38085938 83.49975586 C-38.70664907 82.05768577 -39.03249414 80.61562818 -39.35839844 79.17358398 C-39.51598633 78.47628174 -39.67357422 77.77897949 -39.8359375 77.06054688 C-40.06969086 76.02660294 -40.06969086 76.02660294 -40.3081665 74.97177124 C-40.61743909 73.60138494 -40.92583472 72.23080041 -41.2333374 70.86001587 C-41.86350839 68.05205445 -42.50072519 65.24698082 -43.17285156 62.44873047 C-44.1604442 58.29718362 -44.71907041 54.52187306 -44.5 50.25 C-46.12614367 51.16470581 -47.75228522 52.07941539 -49.37841797 52.99414062 C-50.80449004 53.79628565 -52.23059738 54.59836798 -53.65673828 55.40039062 C-57.4568779 57.53760448 -61.25641517 59.67587535 -65.0546875 61.81640625 C-65.77914062 62.2244751 -66.50359375 62.63254395 -67.25 63.05297852 C-68.64865262 63.84084545 -70.04709584 64.62908425 -71.4453125 65.41772461 C-76.27513519 68.13756759 -76.27513519 68.13756759 -78.5 69.25 C-79.01034522 72.77327216 -79.33896043 76.26981123 -79.62304688 79.81640625 C-80.05058694 84.27668904 -80.53367904 87.67611933 -83.5 91.25 C-84.49 91.25 -85.48 91.25 -86.5 91.25 C-86.56356689 90.65050537 -86.62713379 90.05101074 -86.69262695 89.43334961 C-87.68047661 77.67734039 -87.68047661 77.67734039 -92.86328125 67.54296875 C-95.67247467 65.84632718 -98.48984072 64.55136978 -101.5 63.25 C-103.42444179 61.97981731 -105.32235 60.66824915 -107.1875 59.3125 C-108.01636719 58.72597656 -108.84523438 58.13945312 -109.69921875 57.53515625 C-110.29347656 57.11105469 -110.88773438 56.68695313 -111.5 56.25 C-110.5 53.25 -110.5 53.25 -107.5 51.25 C-105.58984375 51.38671875 -105.58984375 51.38671875 -103.4375 51.9375 C-102.64730469 52.13472656 -101.85710938 52.33195312 -101.04296875 52.53515625 C-97.62189416 53.49684081 -94.23390069 54.55024847 -90.859375 55.6640625 C-88.15758364 56.33503718 -86.27143 56.64106068 -83.5 56.25 C-80.7225007 54.41121985 -80.7225007 54.41121985 -78 51.875 C-76.95398075 50.95846894 -75.90572049 50.04449047 -74.85546875 49.1328125 C-74.31196777 48.65875977 -73.7684668 48.18470703 -73.20849609 47.69628906 C-69.79246634 44.80452566 -66.18936593 42.14854365 -62.6015625 39.47509766 C-59.58570746 37.27546378 -59.58570746 37.27546378 -57.5 34.25 C-58.26030518 33.80197021 -59.02061035 33.35394043 -59.80395508 32.89233398 C-62.68066393 31.19592539 -65.55634642 29.49780123 -68.43139648 27.79858398 C-69.66537749 27.06972642 -70.89973983 26.341514 -72.13452148 25.61401367 C-80.0182426 20.9684212 -87.8164062 16.22324125 -95.5 11.25 C-93.24259377 8.91475218 -91.2194239 7.06294927 -88.5 5.25 C-86.3984375 5.3515625 -86.3984375 5.3515625 -83.875 5.875 C-82.89789062 6.07609375 -81.92078125 6.2771875 -80.9140625 6.484375 C-79.22410156 6.86335938 -79.22410156 6.86335938 -77.5 7.25 C-76.8615918 7.39244141 -76.22318359 7.53488281 -75.56542969 7.68164062 C-67.81524368 9.42367191 -60.10978914 11.31721987 -52.4375 13.375 C-51.21933594 13.70113281 -50.00117187 14.02726562 -48.74609375 14.36328125 C-46.83752226 14.88463592 -44.93210643 15.41829809 -43.03515625 15.98046875 C-38.41209546 17.30261089 -35.1265779 17.66149834 -30.5 16.25 C-27.72742728 14.43682546 -25.115997 12.47415745 -22.48828125 10.45703125 C-15.85148027 5.55534164 -8.47693722 0.16953874 0 0 Z " fill="#FAFBFA" transform="translate(672.5,336.75)"/>
<path d="M0 0 C1.02480469 0.42023438 2.04960938 0.84046875 3.10546875 1.2734375 C5.60388032 2.52084068 7.13028226 3.42343987 8.8125 5.625 C9.25 8.625 9.25 8.625 8.8125 11.625 C1.89768283 18.08101414 -9.77909179 19.852525 -18.75 22.125 C-33.17753537 25.70752909 -33.17753537 25.70752909 -46.1875 32.625 C-47.08342083 36.22419423 -47.08342083 36.22419423 -47.1875 39.625 C-38.42227404 45.83370172 -28.29530488 49.08628682 -18.1015625 52.19921875 C-16.82792847 52.58895874 -16.82792847 52.58895874 -15.52856445 52.98657227 C-13.87954762 53.48444575 -12.22711086 53.9711695 -10.57104492 54.44506836 C-5.98891679 55.81431148 -2.76052853 57.28826394 0.8125 60.625 C0.9375 63.3125 0.9375 63.3125 -0.1875 66.625 C-7.40961029 71.77586357 -17.00949843 74.19985778 -25.34619141 77.01928711 C-27.68618958 77.81205604 -30.02091502 78.619092 -32.35546875 79.42773438 C-53.14073858 86.56945331 -53.14073858 86.56945331 -58.17578125 84.24609375 C-58.94277344 83.52550781 -59.70976562 82.80492187 -60.5 82.0625 C-61.325 81.31355469 -62.15 80.56460938 -63 79.79296875 C-63.721875 79.07753906 -64.44375 78.36210938 -65.1875 77.625 C-66.115625 76.7175 -67.04375 75.81 -68 74.875 C-68.721875 74.1325 -69.44375 73.39 -70.1875 72.625 C-71.05375 71.944375 -71.92 71.26375 -72.8125 70.5625 C-75.1875 68.625 -75.1875 68.625 -76.5625 66.5625 C-78.14682431 64.34837124 -78.14682431 64.34837124 -81.29296875 63.4765625 C-86.2197147 61.45085429 -89.48042287 57.84298874 -93.125 54.0625 C-94.15077148 53.03479492 -94.15077148 53.03479492 -95.19726562 51.98632812 C-100.1875 46.90635927 -100.1875 46.90635927 -100.1875 44.625 C-95.72631855 44.17888185 -93.71656263 44.26890015 -89.9375 46.8125 C-87.1875 49.625 -87.1875 49.625 -85.96484375 52.0625 C-83.60834586 55.46000026 -80.65839913 56.77525847 -77 58.4375 C-76.34580078 58.74880859 -75.69160156 59.06011719 -75.01757812 59.38085938 C-73.41363216 60.14185564 -71.80134652 60.88523152 -70.1875 61.625 C-70.08050781 60.69429687 -69.97351563 59.76359375 -69.86328125 58.8046875 C-68.86258365 54.09620282 -67.12444236 53.24962824 -63.1875 50.625 C-61.8675 50.625 -60.5475 50.625 -59.1875 50.625 C-59.12691406 49.99851562 -59.06632812 49.37203125 -59.00390625 48.7265625 C-58.92011719 47.90929687 -58.83632813 47.09203125 -58.75 46.25 C-58.66878906 45.43789063 -58.58757812 44.62578125 -58.50390625 43.7890625 C-58.1875 41.625 -58.1875 41.625 -57.1875 39.625 C-56.65514386 33.84074582 -56.5885755 29.42356599 -60.1875 24.625 C-60.1875 23.965 -60.1875 23.305 -60.1875 22.625 C-58.40039414 21.76133178 -56.6076535 20.90931406 -54.8125 20.0625 C-53.81476563 19.58683594 -52.81703125 19.11117187 -51.7890625 18.62109375 C-50.93054688 18.29238281 -50.07203125 17.96367187 -49.1875 17.625 C-48.5275 17.955 -47.8675 18.285 -47.1875 18.625 C-48.1775 20.605 -49.1675 22.585 -50.1875 24.625 C-49.27226562 24.191875 -48.35703125 23.75875 -47.4140625 23.3125 C-46.22554688 22.755625 -45.03703125 22.19875 -43.8125 21.625 C-42.62914062 21.068125 -41.44578125 20.51125 -40.2265625 19.9375 C-37.1875 18.625 -37.1875 18.625 -35.1875 18.625 C-36.5075 16.645 -37.8275 14.665 -39.1875 12.625 C-37.8675 11.635 -36.5475 10.645 -35.1875 9.625 C-32.71949953 10.77673355 -31.13966435 11.67283565 -29.1875 13.625 C-25.34291573 13.83858801 -21.87129022 13.80381287 -18.1875 12.625 C-18.6825 10.15 -18.6825 10.15 -19.1875 7.625 C-21.1675 7.625 -23.1475 7.625 -25.1875 7.625 C-25.6825 6.14 -25.6825 6.14 -26.1875 4.625 C-23.99019616 3.24942759 -21.78260062 1.90036748 -19.5625 0.5625 C-18.94503906 0.17255859 -18.32757812 -0.21738281 -17.69140625 -0.61914062 C-11.15669761 -4.5055726 -6.82673068 -2.8552866 0 0 Z " fill="#46B6BE" transform="translate(531.1875,493.375)"/>
<path d="M0 0 C2.19659907 -0.00966494 4.39224429 -0.04073041 6.58862305 -0.07226562 C22.94807959 -0.19485381 38.70486123 3.61817768 50.97729492 15.05273438 C59.10724231 23.78098958 62.45006454 33.12473351 62.30541992 44.92773438 C61.07241789 59.86467323 52.54033448 72.19481789 43.03198242 83.24023438 C42.36682617 84.01625 41.70166992 84.79226563 41.01635742 85.59179688 C34.37183362 93.14686653 27.18830233 100.17553165 20.03198242 107.24023438 C19.37198242 106.91023438 18.71198242 106.58023438 18.03198242 106.24023438 C19.15733398 104.87705078 19.15733398 104.87705078 20.30541992 103.48632812 C35.36513652 85.07065825 51.20201662 65.24490772 49.30883789 40.21484375 C48.14001906 31.87850624 42.97521705 25.09150892 36.58276367 19.92382812 C18.37403427 7.90550902 -6.77964383 9.12129001 -27.3112793 13.3203125 C-35.55699821 15.1899164 -43.56051608 17.84176634 -51.52661133 20.65429688 C-52.29714844 20.92483887 -53.06768555 21.19538086 -53.86157227 21.47412109 C-55.67931635 22.13523386 -57.47310149 22.86155015 -59.26098633 23.59960938 C-61.96801758 24.24023438 -61.96801758 24.24023438 -64.52270508 23.34179688 C-65.2884082 22.85453125 -66.05411133 22.36726563 -66.84301758 21.86523438 C-67.62418945 21.383125 -68.40536133 20.90101563 -69.21020508 20.40429688 C-70.08032227 19.82808594 -70.08032227 19.82808594 -70.96801758 19.24023438 C-70.96801758 18.58023438 -70.96801758 17.92023438 -70.96801758 17.24023438 C-55.82653743 11.00670816 -40.88047833 5.75772281 -24.91333008 2.07226562 C-24.32052246 1.9353833 -23.72771484 1.79850098 -23.11694336 1.6574707 C-15.4102931 0.16114427 -7.8177844 0.02074371 0 0 Z " fill="#42B2B6" transform="translate(683.968017578125,216.759765625)"/>
<path d="M0 0 C3.23697015 1.07899005 3.70324392 1.583061 5.75 4.125 C9.43953192 8.49252283 13.43658617 12.48561456 17.5 16.5 C22.02188881 20.97198076 26.37934753 25.47026892 30.484375 30.33203125 C32.10986575 32.12090896 33.83668166 33.63386591 35.6875 35.1875 C41.16095928 39.8287374 45.87500595 45.18972903 50.66259766 50.51855469 C51.8078 51.78709938 52.9705583 53.03975715 54.13671875 54.2890625 C55.8125 56.125 55.8125 56.125 58 59 C56.94283961 62.17148118 56.45707049 62.70375382 53.9453125 64.6640625 C53.33042969 65.14617187 52.71554687 65.62828125 52.08203125 66.125 C51.43621094 66.62 50.79039062 67.115 50.125 67.625 C49.48691406 68.12773437 48.84882812 68.63046875 48.19140625 69.1484375 C45.41652906 71.30345695 43.37044325 72.87651892 40 74 C30.94534074 63.12584657 22.39860012 52.08517319 15 40 C10.73283493 44.12951459 6.81731918 48.53499397 2.890625 52.98828125 C2.26671875 53.65214844 1.6428125 54.31601562 1 55 C0.67 55 0.34 55 0 55 C0 36.85 0 18.7 0 0 Z " fill="#2D969E" transform="translate(509,360)"/>
<path d="M0 0 C31.02 0 62.04 0 94 0 C88.82228496 5.17771504 83.75620726 8.26366072 76.30859375 8.48828125 C74.35095924 8.45554489 72.39359913 8.39664722 70.4375 8.3125 C68.92446289 8.27866211 68.92446289 8.27866211 67.38085938 8.24414062 C64.91896632 8.18580193 62.46031372 8.10402003 60 8 C60.78130071 10.49552484 60.78130071 10.49552484 62 13 C62.99 13.33 63.98 13.66 65 14 C65 14.66 65 15.32 65 16 C63.58521865 16.64995297 62.16808513 17.29478722 60.75 17.9375 C59.96109375 18.29714844 59.1721875 18.65679687 58.359375 19.02734375 C56.24176302 19.90033279 54.23330638 20.51338508 52 21 C52.14148989 19.3954444 52.28835686 17.79136233 52.4375 16.1875 C52.51871094 15.29417969 52.59992188 14.40085937 52.68359375 13.48046875 C53 11 53 11 54 8 C51.97954558 8.60183749 49.97888961 9.27306096 48 10 C46.64908472 12.70183055 46.66141942 15.11808206 46.4375 18.125 C46.35371094 19.22070312 46.26992188 20.31640625 46.18359375 21.4453125 C46.09271484 22.70988281 46.09271484 22.70988281 46 24 C39.84629161 25.823321 34.40353322 26.2361959 28 26 C28.33 27.65 28.66 29.3 29 31 C24.73383684 32.13764351 21.43513689 33 17 33 C16.505 30.525 16.505 30.525 16 28 C17.98 27.01 19.96 26.02 22 25 C21.152874 19.63486869 20.08318169 14.3212615 19 9 C17.35 9 15.7 9 14 9 C14.495 9.515625 14.99 10.03125 15.5 10.5625 C17.55402253 13.90028661 17.41314312 16.14399755 17 20 C15.5 22.4375 15.5 22.4375 14 24 C13.01 23.67 12.02 23.34 11 23 C10.855625 22.2575 10.71125 21.515 10.5625 20.75 C10.376875 19.8425 10.19125 18.935 10 18 C9.89429688 17.36320312 9.78859375 16.72640625 9.6796875 16.0703125 C8.58057415 12.72243852 6.10541782 10.68491943 3.69140625 8.1953125 C2 6 2 6 0 0 Z " fill="#3899A3" transform="translate(390,475)"/>
<path d="M0 0 C1.66666667 0 3.33333333 0 5 0 C5 3.3 5 6.6 5 10 C5.66 10.33 6.32 10.66 7 11 C7.226875 10.4225 7.45375 9.845 7.6875 9.25 C9.41223624 6.2933093 11.08102811 4.79118729 14 3 C18.97733436 3 22.17046084 4.93636867 26 8 C27.5625 10.3125 27.5625 10.3125 29 13 C30.35180375 14.73461544 31.71414802 16.45631828 33.109375 18.15625 C34.40237477 20.83298636 33.92322851 22.20524946 33 25 C31.37109375 27.67578125 31.37109375 27.67578125 29.4375 30.3125 C28.79683594 31.19550781 28.15617188 32.07851563 27.49609375 32.98828125 C27.00238281 33.65214844 26.50867188 34.31601562 26 35 C17.74435627 33.84040224 17.74435627 33.84040224 15.0625 30.8125 C14 28 14 28 13.375 24.4375 C11.81614264 20.5403566 11.33501668 20.30325946 7.6875 18.6875 C6.13298225 18.1033022 4.5707818 17.53894065 3 17 C1.989375 16.5875 0.97875 16.175 -0.0625 15.75 C-0.701875 15.5025 -1.34125 15.255 -2 15 C-2.99 16.485 -2.99 16.485 -4 18 C-5.4606285 15.35261084 -6 14.10551666 -6 11 C-4.68693567 8.9866347 -3.35162508 6.98768394 -2 5 C-1.28426473 3.35380887 -0.5974304 1.69271945 0 0 Z " fill="#38969F" transform="translate(585,484)"/>
<path d="M0 0 C0.66 0.33 1.32 0.66 2 1 C0.6078125 2.2684375 0.6078125 2.2684375 -0.8125 3.5625 C-15.04130682 17.90605527 -25.63868496 36.59952045 -31 56 C-31.19851563 56.66257812 -31.39703125 57.32515625 -31.6015625 58.0078125 C-33.66307739 68.31538693 -32.2668869 79.50785056 -26.45703125 88.34765625 C-18.5922433 97.97617239 -7.1375138 102.43987146 5 104 C8.62264637 104.25146195 12.24689711 104.41255808 15.875 104.5625 C16.84953125 104.60568359 17.8240625 104.64886719 18.828125 104.69335938 C21.21862802 104.79882274 23.60922444 104.90094175 26 105 C20.764222 108.14632054 14.92374131 107.32840693 9 107.3125 C7.83082031 107.32861328 6.66164063 107.34472656 5.45703125 107.36132812 C-7.46279079 107.36849784 -19.23804524 105.06174003 -29.03515625 96.1484375 C-36.89156313 87.77494227 -39.36763962 78.49581379 -39.203125 67.2265625 C-37.80651861 45.0420071 -22.75919284 24.56373531 -8 9 C-6.65942138 7.48554935 -5.3255532 5.96511923 -4 4.4375 C-1.09230769 1.09230769 -1.09230769 1.09230769 0 0 Z " fill="#2B868F" transform="translate(334,414)"/>
<path d="M0 0 C3.56710246 1.69922929 6.33196882 3.77664069 9.375 6.3125 C10.33792969 7.11171875 11.30085938 7.9109375 12.29296875 8.734375 C13.18628906 9.48203125 14.07960938 10.2296875 15 11 C16.01513672 11.84304688 16.01513672 11.84304688 17.05078125 12.703125 C18.36995322 13.79876187 19.68554927 14.89870344 21 16 C19.29768462 20.12406165 16.39900171 23.24373334 13.5 26.5625 C12.70130493 27.48687866 12.70130493 27.48687866 11.88647461 28.42993164 C8.50677042 32.32471502 5.05591611 36.14464822 1.5625 39.9375 C-1.9714876 43.78448168 -5.10365226 47.65547839 -8 52 C-8.66 51.67 -9.32 51.34 -10 51 C-7.03 44.73 -4.06 38.46 -1 32 C-3.908125 33.2684375 -3.908125 33.2684375 -6.875 34.5625 C-8.8891448 35.44100997 -10.92803369 36.26821134 -13 37 C-13.66 36.67 -14.32 36.34 -15 36 C-13.60452243 34.29137605 -12.2085998 32.58311558 -10.8125 30.875 C-9.64654297 29.44800781 -9.64654297 29.44800781 -8.45703125 27.9921875 C-6 25 -6 25 -3.25 22.25 C-0.20378446 17.84991089 -0.22296459 14.35799794 -0.1875 9.125 C-0.16236328 8.24585938 -0.13722656 7.36671875 -0.11132812 6.4609375 C-0.05281805 4.3077668 -0.02345764 2.15383779 0 0 Z " fill="#32939D" transform="translate(427,401)"/>
<path d="M0 0 C3 2.5625 3 2.5625 5 5 C6.0828125 6.2375 6.0828125 6.2375 7.1875 7.5 C11.01112561 12.77396636 11.31458692 17.31701081 11.25 23.625 C11.26160156 24.7696875 11.26160156 24.7696875 11.2734375 25.9375 C11.25985746 29.80781054 11.19293785 31.71059323 9 35 C8.98582031 34.10539062 8.97164062 33.21078125 8.95703125 32.2890625 C8.57378214 22.57317971 7.15345867 14.59853647 -0.125 7.6875 C-14.80307196 -3.46279501 -33.90511987 -4.46797441 -51.50024414 -2.07202148 C-59.8004118 -0.85606352 -67.92879572 0.68691097 -76 3 C-73.34828271 -0.36601752 -69.89020042 -1.30904288 -65.9375 -2.5 C-65.2357666 -2.71358154 -64.5340332 -2.92716309 -63.81103516 -3.1472168 C-42.9679186 -9.22818341 -19.20053232 -11.97070225 0 0 Z " fill="#49B2B1" transform="translate(715,240)"/>
<path d="M0 0 C0.73911621 0.38115967 1.47823242 0.76231934 2.23974609 1.1550293 C2.23974609 7.82169596 2.23974609 14.48836263 2.23974609 21.1550293 C1.40817993 21.31672607 1.40817993 21.31672607 0.55981445 21.48168945 C-2.19880252 22.28230669 -4.38777127 23.50041556 -6.88134766 24.9284668 C-7.88794434 25.50032715 -8.89454102 26.0721875 -9.93164062 26.66137695 C-11.00945801 27.27803223 -12.08727539 27.8946875 -13.19775391 28.5300293 C-59.11331762 54.45936143 -59.11331762 54.45936143 -83.76025391 62.1550293 C-84.09025391 61.4950293 -84.42025391 60.8350293 -84.76025391 60.1550293 C-83.72976929 59.70401855 -83.72976929 59.70401855 -82.6784668 59.24389648 C-60.44586868 49.49214271 -38.20797672 39.6800343 -17.12744141 27.5847168 C-14.43002382 26.04283204 -11.75837548 24.675087 -8.89306641 23.4753418 C-5.54101036 21.95311399 -3.24174458 20.8794298 -0.76025391 18.1550293 C0.86193259 12.95855678 0.57495421 7.52480553 0.23974609 2.1550293 C-4.58515662 4.11304924 -8.8869418 6.33235421 -13.32275391 9.0925293 C-27.35935448 17.65108504 -41.85752842 25.36264128 -56.62561035 32.57678223 C-58.42407349 33.45595323 -60.21866047 34.34303912 -62.01318359 35.23022461 C-63.10920898 35.75841797 -64.20523437 36.28661133 -65.33447266 36.83081055 C-66.30989014 37.30429932 -67.28530762 37.77778809 -68.2902832 38.265625 C-70.76025391 39.1550293 -70.76025391 39.1550293 -73.76025391 38.1550293 C-70.52432182 35.99774124 -67.16198248 34.38329028 -63.65478516 32.7331543 C-62.19204721 32.03765199 -60.72965896 31.34141388 -59.26757812 30.64453125 C-58.11754303 30.09667465 -58.11754303 30.09667465 -56.9442749 29.53775024 C-32.29743761 17.88934798 -32.29743761 17.88934798 -9.29638672 3.35961914 C-8.51360352 2.79065918 -7.73082031 2.22169922 -6.92431641 1.63549805 C-6.24062988 1.11238037 -5.55694336 0.5892627 -4.85253906 0.05029297 C-2.76025391 -0.8449707 -2.76025391 -0.8449707 0 0 Z " fill="#5BD3D5" transform="translate(511.76025390625,196.844970703125)"/>
<path d="M0 0 C3 2 3 2 3.609375 4.46875 C3.90226964 10.78225678 3.33715997 14.44567012 -0.9375 19.25 C-2.5931229 20.86663648 -4.28118429 22.45071847 -6 24 C-6.77730469 24.74507813 -7.55460938 25.49015625 -8.35546875 26.2578125 C-12.61669279 30.23299912 -16.81195812 33.35078713 -22 36 C-22.66 34.68 -23.32 33.36 -24 32 C-30.01749334 35.73376777 -30.01749334 35.73376777 -33 42 C-33.33 42 -33.66 42 -34 42 C-34.26171875 39.234375 -34.26171875 39.234375 -34 36 C-32.26953125 34.015625 -32.26953125 34.015625 -29.8125 32.25 C-28.90628906 31.57582031 -28.00007812 30.90164063 -27.06640625 30.20703125 C-25.54853516 29.11455078 -25.54853516 29.11455078 -24 28 C-10.77946176 18.71726321 -10.77946176 18.71726321 -3 5 C-2.01 4.67 -1.02 4.34 0 4 C0 2.68 0 1.36 0 0 Z " fill="#2D949F" transform="translate(684,335)"/>
<path d="M0 0 C2.50443808 3.75665711 2.487629 6.65777984 2 11 C1.01307862 15.58628171 -0.28578451 18.33448102 -3.75 21.5625 C-7.94653771 23.41866091 -9.67860696 23.62052239 -14 22 C-15.68712634 19.81792588 -17.04741739 17.54439044 -18.4453125 15.16796875 C-20.81479165 11.86379557 -23.17512099 11.1474637 -27 10 C-27 9.34 -27 8.68 -27 8 C-24.33851097 6.70727676 -22.48033924 5.97598304 -19.5 6.125 C-15.52682503 7.51561124 -12.81425205 9.60413934 -10.6875 13.25 C-10.460625 13.8275 -10.23375 14.405 -10 15 C-8.68 15 -7.36 15 -6 15 C-5.34 12.03 -4.68 9.06 -4 6 C-6.64 5.67 -9.28 5.34 -12 5 C-12 4.01 -12 3.02 -12 2 C-4.36123348 -1.74449339 -4.36123348 -1.74449339 0 0 Z " fill="#4BB5BB" transform="translate(466,522)"/>
<path d="M0 0 C0.66 0 1.32 0 2 0 C1.01 3.3 0.02 6.6 -1 10 C1.9297008 7.17493137 4.50174717 4.21203935 7 1 C7.66 1.33 8.32 1.66 9 2 C5.5062154 10.0936417 0.78666684 16.39347592 -5 23 C-5.68964844 23.80050781 -6.37929688 24.60101563 -7.08984375 25.42578125 C-13.7088457 32.95689892 -20.86848348 39.95978312 -28 47 C-28.66 46.67 -29.32 46.34 -30 46 C-28.87464844 44.63681641 -28.87464844 44.63681641 -27.7265625 43.24609375 C-16.60340447 29.64563803 -7.48497119 15.91079071 0 0 Z " fill="#339AA1" transform="translate(732,277)"/>
<path d="M0 0 C3.77727089 1.81309003 7.37269822 3.9073259 11 6 C10.5 7.875 10.5 7.875 9 10 C7.02475029 10.55047943 5.04470567 11.09287625 3.0390625 11.51953125 C0.18004806 12.19320707 -1.75666159 13.09656135 -4 15 C-5.79599777 19.33152402 -4.7139526 22.20508219 -3.0625 26.375 C-2.38902724 27.92284586 -1.70603083 29.46673133 -1 31 C-2.98 31.66 -4.96 32.32 -7 33 C-7.061875 31.4221875 -7.061875 31.4221875 -7.125 29.8125 C-8.03760802 25.83613649 -8.09629829 25.58283038 -11.125 23.4375 C-12.548125 22.2309375 -12.548125 22.2309375 -14 21 C-14.25506362 17.00400321 -13.02407231 15.04270893 -11.0625 11.5625 C-8 9 -8 9 -5.4453125 8.84765625 C-2.91926556 9.10169213 -0.48184733 9.46989669 2 10 C1.505 8.63875 1.505 8.63875 1 7.25 C0 4 0 4 0 0 Z " fill="#F4F9F9" transform="translate(479,540)"/>
<path d="M0 0 C4.46118145 -0.44611815 6.47093737 -0.35609985 10.25 2.1875 C13 5 13 5 14.29296875 7.51171875 C16.49029278 10.71468307 18.46388658 11.2695077 22.0625 12.625 C27.6449255 15.18389227 27.6449255 15.18389227 29.23046875 18.828125 C29.70089278 21.58700277 29.98009523 24.20337954 30 27 C27.21713815 25.74972873 26.05959531 25.08014542 24.1875 22.5625 C22.16191188 19.77298337 22.16191188 19.77298337 18.859375 18.8125 C13.93811108 16.81725469 10.69424534 13.20467844 7.0625 9.4375 C6.37865234 8.75236328 5.69480469 8.06722656 4.99023438 7.36132812 C0 2.28135927 0 2.28135927 0 0 Z " fill="#46B4BC" transform="translate(431,538)"/>
<path d="M0 0 C0.99 0.33 1.98 0.66 3 1 C3 1.66 3 2.32 3 3 C1.92621094 3.53109375 0.85242188 4.0621875 -0.25390625 4.609375 C-1.69015842 5.32280745 -3.12635328 6.03635529 -4.5625 6.75 C-5.26697266 7.09804687 -5.97144531 7.44609375 -6.69726562 7.8046875 C-11.2266902 10.05896333 -15.62780991 12.45396679 -20 15 C-36.06584102 24.20953273 -52.74309767 31.3727538 -70 38 C-70.66 37.34 -71.32 36.68 -72 36 C-70.79730469 35.50113281 -69.59460938 35.00226563 -68.35546875 34.48828125 C-31.83005591 20.99350185 -31.83005591 20.99350185 0 0 Z " fill="#6EDADC" transform="translate(509,225)"/>
<path d="M0 0 C3.8456534 0.2683014 5.65695666 0.70596285 8.625 3.25 C9.800625 4.61125 9.800625 4.61125 11 6 C11.721875 6.825 12.44375 7.65 13.1875 8.5 C17.01112561 13.77396636 17.31458692 18.31701081 17.25 24.625 C17.25773438 25.388125 17.26546875 26.15125 17.2734375 26.9375 C17.25985746 30.80781054 17.19293785 32.71059323 15 36 C14.98582031 35.10539062 14.97164062 34.21078125 14.95703125 33.2890625 C14.60244367 24.29978823 13.57386841 16.80993903 7.18359375 10.08984375 C4.89756186 8.07107237 2.73029963 6.36514982 0 5 C0 3.35 0 1.7 0 0 Z " fill="#41A7A9" transform="translate(709,239)"/>
<path d="M0 0 C-3.33135033 2.22090022 -6.66646478 3.36553335 -10.4296875 4.609375 C-11.16862244 4.85703613 -11.90755737 5.10469727 -12.66888428 5.35986328 C-15.06917246 6.16194739 -17.47185207 6.95652859 -19.875 7.75 C-20.6866864 8.01945435 -21.4983728 8.28890869 -22.33465576 8.56652832 C-56.80157767 20 -56.80157767 20 -62 20 C-62 19.01 -62 18.02 -62 17 C-60.75734375 16.70609375 -59.5146875 16.4121875 -58.234375 16.109375 C-43.49490746 12.49406015 -29.22513953 7.86217818 -14.90136719 2.87597656 C-14.13606689 2.61322433 -13.3707666 2.35047211 -12.58227539 2.07975769 C-11.13249007 1.58189656 -9.68522141 1.07662702 -8.2409668 0.5629425 C-3.33816734 -1.11272245 -3.33816734 -1.11272245 0 0 Z " fill="#54C1C7" transform="translate(427,259)"/>
<path d="M0 0 C0.66 0.33 1.32 0.66 2 1 C0.6078125 2.2684375 0.6078125 2.2684375 -0.8125 3.5625 C-11.06442118 13.89709797 -18.29662487 26.45562163 -25.02954102 39.24511719 C-25.93393315 40.8805312 -26.96336281 42.44504422 -28 44 C-28.66 44 -29.32 44 -30 44 C-30.99 46.475 -30.99 46.475 -32 49 C-32.66 49 -33.32 49 -34 49 C-29.01962396 30.57260863 -13.35060887 13.16378393 0 0 Z " fill="#308B93" transform="translate(334,414)"/>
<path d="M0 0 C1.66666667 0 3.33333333 0 5 0 C4.96519531 1.03060547 4.96519531 1.03060547 4.9296875 2.08203125 C4.91164063 2.98308594 4.89359375 3.88414062 4.875 4.8125 C4.84019531 6.15248047 4.84019531 6.15248047 4.8046875 7.51953125 C4.81714173 10.25402714 4.81714173 10.25402714 7 13 C5.68 14.32 4.36 15.64 3 17 C0.525 16.01 0.525 16.01 -2 15 C-2.99 16.485 -2.99 16.485 -4 18 C-5.4606285 15.35261084 -6 14.10551666 -6 11 C-4.68693567 8.9866347 -3.35162508 6.98768394 -2 5 C-1.28426473 3.35380887 -0.5974304 1.69271945 0 0 Z " fill="#31939E" transform="translate(585,484)"/>
<path d="M0 0 C1.98 0 3.96 0 6 0 C5.60708338 5.36986046 3.95418535 9.34998276 0 13 C-2.9240955 14.39102701 -5.84826378 15.27901459 -9 16 C-9.66 14.35 -10.32 12.7 -11 11 C-9.9275 10.484375 -8.855 9.96875 -7.75 9.4375 C-3.53003795 7.06644627 -2.06854018 4.30256358 0 0 Z " fill="#EFF5F7" transform="translate(579,483)"/>
<path d="M0 0 C0.680625 0.33 1.36125 0.66 2.0625 1 C5.50840238 2.17307315 8.38397422 2.14180493 12 2 C12.33 3.65 12.66 5.3 13 7 C9.66666667 8.33333333 6.33333333 9.66666667 3 11 C2.67 10.34 2.34 9.68 2 9 C3.32 9 4.64 9 6 9 C6 8.34 6 7.68 6 7 C5.02417969 7.15597656 4.04835938 7.31195312 3.04296875 7.47265625 C1.77066406 7.66730469 0.49835938 7.86195313 -0.8125 8.0625 C-2.07707031 8.25972656 -3.34164063 8.45695313 -4.64453125 8.66015625 C-8 9 -8 9 -11 8 C-10.67 7.01 -10.34 6.02 -10 5 C-6.76693609 3.38346804 -3.54971796 2.60852308 0 2 C0 1.34 0 0.68 0 0 Z " fill="#D5D6D8" transform="translate(505,625)"/>
<path d="M0 0 C0.66 0.33 1.32 0.66 2 1 C0.17715753 8.26375107 -2.08180128 15.10808386 -5 22 C-5.40476562 22.98226563 -5.80953125 23.96453125 -6.2265625 24.9765625 C-7.47042412 27.99082839 -8.72132369 31.00031458 -10 34 C-10.28456055 34.67264893 -10.56912109 35.34529785 -10.86230469 36.03833008 C-13.3290933 41.74698775 -16.1871904 47.15361386 -19.25 52.5625 C-19.70890625 53.38041016 -20.1678125 54.19832031 -20.640625 55.04101562 C-21.7568909 57.02936425 -22.87670398 59.01561734 -24 61 C-24.66 60.67 -25.32 60.34 -26 60 C-25.68885254 59.43941895 -25.37770508 58.87883789 -25.05712891 58.30126953 C-16.63021273 42.98438299 -9.93361514 27.43071974 -4 11 C-3.23980726 8.91137682 -2.47940173 6.82283107 -1.71875 4.734375 C-1.14562484 3.15632571 -0.57262547 1.57823069 0 0 Z " fill="#31979D" transform="translate(652,446)"/>
<path d="M0 0 C3.34453926 6.87568372 4.46139097 11.44947999 3 19 C1.35 19 -0.3 19 -2 19 C-2.6920747 16.52830464 -3.10620412 14.18071111 -3.4375 11.625 C-3.96622239 8.21767796 -4.81815652 5.23037219 -6 2 C-2.25 0 -2.25 0 0 0 Z " fill="#EEF7F7" transform="translate(562,516)"/>
<path d="M0 0 C0 0.66 0 1.32 0 2 C-3.97037118 3.80471417 -7.645335 4.67743222 -12 5 C-12.99 4.34 -13.98 3.68 -15 3 C-15.598125 3.33 -16.19625 3.66 -16.8125 4 C-19 5 -19 5 -22 5 C-22.99 4.34 -23.98 3.68 -25 3 C-24.34 1.68 -23.68 0.36 -23 -1 C-22.21496094 -0.98839844 -21.42992187 -0.97679687 -20.62109375 -0.96484375 C-13.77893385 -0.85374513 -13.77893385 -0.85374513 -7 -1.625 C-3.82584831 -2.02176896 -2.60609501 -1.77214461 0 0 Z " fill="#D5D6D8" transform="translate(521,642)"/>
<path d="M0 0 C4.83193097 2.03395385 6.87021082 5.32629597 9 10 C9.5123416 13.84256204 9.50546751 15.96246142 7.8125 19.4375 C6 21 6 21 3.3125 21.25 C2.549375 21.1675 1.78625 21.085 1 21 C1.165 20.175 1.33 19.35 1.5 18.5 C2.47196338 11.69625636 2.14992771 6.44978314 0 0 Z " fill="#EEF6F7" transform="translate(569,517)"/>
<path d="M0 0 C0.433125 0.94875 0.86625 1.8975 1.3125 2.875 C2.79302201 6.20041937 2.79302201 6.20041937 6 8 C6 8.66 6 9.32 6 10 C3.03 10.66 0.06 11.32 -3 12 C-8 6.5 -8 6.5 -8 2 C-4.91190305 0.23537317 -3.76687864 0 0 0 Z " fill="#F3FAFA" transform="translate(488,556)"/>
<path d="M0 0 C0.99 0.66 1.98 1.32 3 2 C2.51675181 7.15464734 -0.18610761 10.81550319 -3 15 C-5 12 -5 12 -5 10 C-6.65 10 -8.3 10 -10 10 C-10.33 8.35 -10.66 6.7 -11 5 C-9.9275 4.731875 -8.855 4.46375 -7.75 4.1875 C-4.43491072 3.13772173 -2.56122354 2.25387672 0 0 Z " fill="#3B98A2" transform="translate(616,502)"/>
<path d="M0 0 C7.59 0 15.18 0 23 0 C21 4 21 4 18 6 C10.79996587 6.88421472 6.18644415 4.5495991 0 1 C0 0.67 0 0.34 0 0 Z " fill="#F7FAF9" transform="translate(549,483)"/>
<path d="M0 0 C0.76699219 0.20496094 1.53398437 0.40992188 2.32421875 0.62109375 C13.17915671 3.25603223 23.87034494 3.7116422 35 4 C31.60213295 6.0547378 28.95836338 6.25718615 25.01953125 6.265625 C23.2725293 6.26949219 23.2725293 6.26949219 21.49023438 6.2734375 C20.27658203 6.26570312 19.06292969 6.25796875 17.8125 6.25 C16.61818359 6.25773438 15.42386719 6.26546875 14.19335938 6.2734375 C7.47521053 6.25864796 1.48897044 5.75641305 -5 4 C-4.0409375 3.8453125 -4.0409375 3.8453125 -3.0625 3.6875 C-2.381875 3.460625 -1.70125 3.23375 -1 3 C-0.67 2.01 -0.34 1.02 0 0 Z " fill="#37979D" transform="translate(325,515)"/>
<path d="M0 0 C4.455 0.99 4.455 0.99 9 2 C8.67 5.96 8.34 9.92 8 14 C6.68 13.34 5.36 12.68 4 12 C3.2575 11.649375 2.515 11.29875 1.75 10.9375 C-0.43286756 8.52075377 -0.25 7.5030764 -0.25 4.3125 C-0.1675 2.889375 -0.085 1.46625 0 0 Z " fill="#EEF8F8" transform="translate(495,548)"/>
<path d="M0 0 C2.1519437 3.22791555 2.20086443 4.28400809 2 8 C-3.9129304 7.35729017 -9.34244531 5.80996216 -15 4 C-10.82608546 0.66819102 -5.31350785 -2.55835563 0 0 Z " fill="#EAF6F6" transform="translate(551,523)"/>
<path d="M0 0 C0.33 1.32 0.66 2.64 1 4 C0.50371094 4.42410156 0.00742187 4.84820312 -0.50390625 5.28515625 C-9.80443248 13.23145778 -9.80443248 13.23145778 -17 23 C-17.66 23 -18.32 23 -19 23 C-19.226875 23.5775 -19.45375 24.155 -19.6875 24.75 C-21.33038023 27.5663661 -23.39533227 29.08077114 -26 31 C-25.41150607 27.91281871 -24.53973665 26.11204872 -22.48046875 23.75 C-21.95799561 23.14679932 -21.43552246 22.54359863 -20.8972168 21.92211914 C-20.33301025 21.28781982 -19.76880371 20.65352051 -19.1875 20 C-18.61233643 19.34443115 -18.03717285 18.6888623 -17.44458008 18.01342773 C-11.88865256 11.7460381 -6.0171208 5.82197094 0 0 Z " fill="#2D8B91" transform="translate(335,393)"/>
<path d="M0 0 C1.8125 0.1875 1.8125 0.1875 4 1 C4.474375 1.825 4.94875 2.65 5.4375 3.5 C6.77767835 6.25461912 6.77767835 6.25461912 9.6875 6.8125 C10.8321875 6.9053125 10.8321875 6.9053125 12 7 C12 8.65 12 10.3 12 12 C3.84615385 12.61538462 3.84615385 12.61538462 0.9375 10.5 C-0.4196317 6.88098213 -0.19274768 3.85495364 0 0 Z " fill="#F3F9F9" transform="translate(417,483)"/>
<path d="M0 0 C3.89621222 0.50068148 6.92897696 2.57710579 10.25 4.5625 C11.32765625 5.20316406 12.4053125 5.84382812 13.515625 6.50390625 C14.33546875 6.99761719 15.1553125 7.49132812 16 8 C15.67 8.66 15.34 9.32 15 10 C11.37 8.02 7.74 6.04 4 4 C2.36040763 5.63959237 2.83357713 7.5334438 2.79467773 9.79516602 C2.77473251 10.81614883 2.75478729 11.83713165 2.73423767 12.88905334 C2.71752518 13.9994548 2.70081268 15.10985626 2.68359375 16.25390625 C2.66281265 17.38448959 2.64203156 18.51507294 2.62062073 19.67991638 C2.55500203 23.30737985 2.49618323 26.93491833 2.4375 30.5625 C2.39432649 33.01498186 2.3507126 35.467456 2.30664062 37.91992188 C2.19930816 43.94653427 2.0975651 49.97322201 2 56 C1.67 56 1.34 56 1 56 C1 38.18 1 20.36 1 2 C0.34 1.67 -0.32 1.34 -1 1 C-0.67 0.67 -0.34 0.34 0 0 Z " fill="#55CFD2" transform="translate(511,224)"/>
<path d="M0 0 C0.66 0.66 1.32 1.32 2 2 C-19.65778627 11.42193626 -19.65778627 11.42193626 -27.84375 14.24609375 C-29.46317421 14.81230548 -31.05794529 15.44982267 -32.63671875 16.12109375 C-35.27961596 17.10398941 -36.40055883 16.96275599 -39 16 C-36.23964869 14.15976579 -33.96824767 13.14395952 -30.87890625 12.01171875 C-29.35910156 11.44988892 -29.35910156 11.44988892 -27.80859375 10.87670898 C-26.20177734 10.28805054 -26.20177734 10.28805054 -24.5625 9.6875 C-16.29590718 6.6275075 -8.08097007 3.52656369 0 0 Z " fill="#54CBCD" transform="translate(436,235)"/>
<path d="M0 0 C0 0.66 0 1.32 0 2 C-11.46971853 7.63963401 -22.80594625 13.10610048 -35 17 C-35.33 16.34 -35.66 15.68 -36 15 C-35.21351074 14.65219482 -34.42702148 14.30438965 -33.61669922 13.94604492 C-30.67527323 12.64445417 -27.7344226 11.34157422 -24.79394531 10.0378418 C-23.5256168 9.47580767 -22.25706585 8.91427523 -20.98828125 8.35327148 C-19.15565316 7.54285222 -17.32391239 6.73042737 -15.4921875 5.91796875 C-14.39245605 5.43094482 -13.29272461 4.9439209 -12.15966797 4.44213867 C-10.0060052 3.45916186 -7.87974744 2.41437867 -5.78173828 1.31762695 C-3 0 -3 0 0 0 Z " fill="#5DCBD0" transform="translate(463,242)"/>
<path d="M0 0 C3.77727089 1.81309003 7.37269822 3.9073259 11 6 C10.28125 7.9140625 10.28125 7.9140625 9 10 C6.90625 10.8984375 6.90625 10.8984375 4.5 11.375 C3.30890625 11.63410156 3.30890625 11.63410156 2.09375 11.8984375 C1.4028125 11.93195312 0.711875 11.96546875 0 12 C-0.66 11.34 -1.32 10.68 -2 10 C-0.68 10 0.64 10 2 10 C1.505 8.63875 1.505 8.63875 1 7.25 C0 4 0 4 0 0 Z " fill="#E4F3F3" transform="translate(479,540)"/>
<path d="M0 0 C3.12710148 6.01365669 5.35915436 12.01322991 7.24609375 18.50390625 C8.57380139 22.89978803 10.08656401 27.2212036 12.1875 31.3125 C13 33 13 33 13 36 C12.34 36 11.68 36 11 36 C9.53707162 32.14756199 8.08048709 28.29275491 6.625 24.4375 C6.2125 23.35146484 5.8 22.26542969 5.375 21.14648438 C-0.35949013 5.93158717 -0.35949013 5.93158717 0 0 Z " fill="#2B8F94" transform="translate(356,448)"/>
<path d="M0 0 C0.66 0.66 1.32 1.32 2 2 C1.66267052 5.18915068 0.54202093 6.82246394 -1.72265625 9.015625 C-2.26083984 9.54414063 -2.79902344 10.07265625 -3.35351562 10.6171875 C-3.91748047 11.15601563 -4.48144531 11.69484375 -5.0625 12.25 C-5.63033203 12.80429687 -6.19816406 13.35859375 -6.78320312 13.9296875 C-8.18212469 15.29334214 -9.59019114 16.64760417 -11 18 C-11.66 17.67 -12.32 17.34 -13 17 C-12.64172119 16.5560791 -12.28344238 16.1121582 -11.91430664 15.65478516 C-10.29513011 13.64638603 -8.67878604 11.63572588 -7.0625 9.625 C-6.49853516 8.92632812 -5.93457031 8.22765625 -5.35351562 7.5078125 C-4.81533203 6.8375 -4.27714844 6.1671875 -3.72265625 5.4765625 C-2.97640991 4.549646 -2.97640991 4.549646 -2.21508789 3.60400391 C-0.92494979 2.00290821 -0.92494979 2.00290821 0 0 Z " fill="#339EA5" transform="translate(715,306)"/>
<path d="M0 0 C2.94702738 1.10513527 3.87883653 2.29244382 5.5 4.9375 C4.18 5.9275 2.86 6.9175 1.5 7.9375 C-1.38437779 6.64450306 -3.37219421 5.27808637 -5.5 2.9375 C-3.69216096 0.55876443 -3.06218297 -0.07655457 0 0 Z " fill="#F1F7F7" transform="translate(602.5,494.0625)"/>
<path d="M0 0 C0.66 0 1.32 0 2 0 C2 5.61 2 11.22 2 17 C1.01 17 0.02 17 -1 17 C-1.33 17.66 -1.66 18.32 -2 19 C-1.85820962 16.77057252 -1.71140302 14.54146372 -1.5625 12.3125 C-1.48128906 11.07113281 -1.40007813 9.82976562 -1.31640625 8.55078125 C-1.05508683 5.61819663 -0.65201621 2.86558383 0 0 Z " fill="#E4F0F0" transform="translate(600,411)"/>
<path d="M0 0 C5.33279729 2.36736328 9.51141906 6.33826292 14 10 C17.3 7.03 20.6 4.06 24 1 C24 4.96130371 22.65122875 5.82914401 20 8.6875 C19.2575 9.49574219 18.515 10.30398438 17.75 11.13671875 C17.1725 11.75160156 16.595 12.36648438 16 13 C12.06014326 11.32651716 8.98587525 8.67405957 5.75 5.9375 C5.19570313 5.47794922 4.64140625 5.01839844 4.0703125 4.54492188 C2.69175775 3.38876943 1.34298593 2.19728462 0 1 C0 0.67 0 0.34 0 0 Z " fill="#3D99A3" transform="translate(437,400)"/>
<path d="M0 0 C3.48539917 0.64544429 6.02819057 2.10134397 9 4 C7.01388388 5.98611612 5.55856751 6.91454712 3 8 C2.01 8 1.02 8 0 8 C-1.125 5.6875 -1.125 5.6875 -2 3 C-1.34 2.01 -0.68 1.02 0 0 Z " fill="#F2F8F8" transform="translate(580,512)"/>
<path d="M0 0 C0.66 0.33 1.32 0.66 2 1 C0.576875 2.299375 0.576875 2.299375 -0.875 3.625 C-6.39061554 9.09531274 -10.6070116 15.62707317 -15 22 C-15.99 21.34 -16.98 20.68 -18 20 C-17.35933594 19.29875 -16.71867187 18.5975 -16.05859375 17.875 C-11.41351272 12.77994838 -6.79521326 7.66977529 -2.27734375 2.4609375 C-1.54167701 1.61953273 -0.79030613 0.79030613 0 0 Z " fill="#5EA7A8" transform="translate(334,414)"/>
<path d="M0 0 C0.33 1.65 0.66 3.3 1 5 C-2.33333333 6.33333333 -5.66666667 7.66666667 -9 9 C-9.33 8.34 -9.66 7.68 -10 7 C-8.68 7 -7.36 7 -6 7 C-6 6.34 -6 5.68 -6 5 C-8.31 5 -10.62 5 -13 5 C-13 4.67 -13 4.34 -13 4 C-9.535 3.505 -9.535 3.505 -6 3 C-6 2.34 -6 1.68 -6 1 C-3.92446352 0.4465236 -2.15634036 0 0 0 Z " fill="#CED0D3" transform="translate(517,627)"/>
<path d="M0 0 C0.33 0.99 0.66 1.98 1 3 C-0.6953125 5.70703125 -0.6953125 5.70703125 -3.125 8.8125 C-3.53935303 9.34713867 -3.95370605 9.88177734 -4.38061523 10.43261719 C-7.17577759 14.02100868 -10.03213526 17.5534474 -13 21 C-13 16.94428345 -11.37131367 15.15798851 -9.125 11.8125 C-8.40570312 10.72582031 -7.68640625 9.63914062 -6.9453125 8.51953125 C-5.98238281 7.27236328 -5.98238281 7.27236328 -5 6 C-4.34 6 -3.68 6 -3 6 C-2.87625 5.195625 -2.7525 4.39125 -2.625 3.5625 C-2.41875 2.716875 -2.2125 1.87125 -2 1 C-1.34 0.67 -0.68 0.34 0 0 Z " fill="#3D9FA9" transform="translate(634,524)"/>
<path d="M0 0 C2.69082872 0.17635452 5.32851446 0.61835921 8 1 C8 1.66 8 2.32 8 3 C8.66 3.33 9.32 3.66 10 4 C6.70509767 5.09830078 6.1782421 4.79456052 3 4 C1.245868 4.08239105 -0.50611925 4.23098781 -2.25 4.4375 C-3.58804688 4.59025391 -3.58804688 4.59025391 -4.953125 4.74609375 C-5.62859375 4.82988281 -6.3040625 4.91367187 -7 5 C-7.33 4.01 -7.66 3.02 -8 2 C-6.865625 1.855625 -5.73125 1.71125 -4.5625 1.5625 C-1.19222799 1.38828522 -1.19222799 1.38828522 0 0 Z " fill="#D1D1D3" transform="translate(527,629)"/>
<path d="M0 0 C0.66 0 1.32 0 2 0 C1.00956295 4.83628305 0.04301154 9.47618873 -2 14 C-3.5625 12.8125 -3.5625 12.8125 -5 11 C-4.6875 8.3125 -4.6875 8.3125 -4 6 C-3.34 6 -2.68 6 -2 6 C-1.855625 5.195625 -1.71125 4.39125 -1.5625 3.5625 C-1 1 -1 1 0 0 Z " fill="#247F8A" transform="translate(304,457)"/>
<path d="M0 0 C3.3 0.99 6.6 1.98 10 3 C6.31265242 5.45823172 3.30300029 6.01242616 -1 7 C-0.67 4.69 -0.34 2.38 0 0 Z " fill="#EDF8F8" transform="translate(510,553)"/>
<path d="M0 0 C-2.2058424 1.13011652 -4.41445027 2.25415788 -6.625 3.375 C-7.55119141 3.85066406 -7.55119141 3.85066406 -8.49609375 4.3359375 C-12.25649167 6.23592803 -15.95517816 7.76788504 -20 9 C-20.66 8.34 -21.32 7.68 -22 7 C-18.90249398 5.63021499 -15.79608343 4.28193428 -12.6875 2.9375 C-11.80642578 2.54755859 -10.92535156 2.15761719 -10.01757812 1.75585938 C-9.17001953 1.39169922 -8.32246094 1.02753906 -7.44921875 0.65234375 C-6.27879028 0.14175415 -6.27879028 0.14175415 -5.0847168 -0.37915039 C-3 -1 -3 -1 0 0 Z " fill="#66D4D7" transform="translate(459,254)"/>
<path d="M0 0 C4.10801767 1.18676066 5.89448334 1.89448334 9 5 C4.05 6.485 4.05 6.485 -1 8 C-0.67 5.36 -0.34 2.72 0 0 Z " fill="#EDF5F6" transform="translate(520,497)"/>
<path d="M0 0 C-3.80208727 3.30616284 -9.83581485 7 -15 7 C-15.33 6.01 -15.66 5.02 -16 4 C-13.90049414 3.13444052 -11.7952093 2.28288723 -9.6875 1.4375 C-8.51574219 0.96183594 -7.34398437 0.48617188 -6.13671875 -0.00390625 C-3 -1 -3 -1 0 0 Z " fill="#69D2D5" transform="translate(438,263)"/>
<path d="M0 0 C2.45870645 2.45870645 2.60718641 3.57352964 3 7 C2.81410787 9.42467989 2.53739778 11.84350878 2.1875 14.25 C2.01605469 15.49265625 1.84460938 16.7353125 1.66796875 18.015625 C1.44753906 19.00046875 1.22710938 19.9853125 1 21 C0.34 21.33 -0.32 21.66 -1 22 C-0.67 14.74 -0.34 7.48 0 0 Z " fill="#40A4A6" transform="translate(734,254)"/>
<path d="M0 0 C0 0.33 0 0.66 0 1 C-2.89568747 1.64649305 -5.79154279 2.29221732 -8.6875 2.9375 C-9.91243164 3.21110352 -9.91243164 3.21110352 -11.16210938 3.49023438 C-15.10082483 4.36727628 -19.03791195 5.23340455 -23 6 C-17.54523595 -0.47869587 -7.82427982 -1.80560304 0 0 Z " fill="#60C3C1" transform="translate(662,237)"/>
<path d="M0 0 C-0.6875 2.4375 -0.6875 2.4375 -2 5 C-4.625 5.8125 -4.625 5.8125 -7 6 C-7.33 4.35 -7.66 2.7 -8 1 C-3.375 -1.125 -3.375 -1.125 0 0 Z " fill="#E3F1F2" transform="translate(613,506)"/>
<path d="M0 0 C1.98 0 3.96 0 6 0 C8.09230769 4.43076923 8.09230769 4.43076923 7.625 7.3125 C7.41875 7.869375 7.2125 8.42625 7 9 C6.67 8.34 6.34 7.68 6 7 C5.34 8.32 4.68 9.64 4 11 C3.54427083 9.01432292 3.08854167 7.02864583 2.6328125 5.04296875 C2.01992277 2.72257026 2.01992277 2.72257026 0 0 Z " fill="#E7F3F3" transform="translate(403,483)"/>
<path d="M0 0 C-1.125 2.5 -1.125 2.5 -3 5 C-6.1875 5.3125 -6.1875 5.3125 -9 5 C-8.67 3.35 -8.34 1.7 -8 0 C-4.94736336 -0.98120464 -3.05263664 -0.98120464 0 0 Z " fill="#F1F7F8" transform="translate(578,506)"/>
<path d="M0 0 C0.66 0 1.32 0 2 0 C0.45454854 5.47932789 -2.15543212 10.11429181 -5 15 C-6.11651815 11.65044556 -5.99822121 10.32740404 -5 7 C-3.5625 5.4375 -3.5625 5.4375 -2 4 C-0.82425289 1.90010348 -0.82425289 1.90010348 0 0 Z " fill="#31929C" transform="translate(650,495)"/>
<path d="M0 0 C0.66 0.33 1.32 0.66 2 1 C0.27068234 8.00897689 -1.83967342 14.50288191 -5 21 C-6.05711427 17.80042565 -5.95184778 16.03354912 -4.78515625 12.890625 C-4.51123047 12.13652344 -4.23730469 11.38242187 -3.95507812 10.60546875 C-3.51325195 9.43951172 -3.51325195 9.43951172 -3.0625 8.25 C-2.77181641 7.45722656 -2.48113281 6.66445313 -2.18164062 5.84765625 C-1.46405186 3.89487371 -0.73329094 1.94694059 0 0 Z " fill="#2D9095" transform="translate(652,446)"/>
<path d="M0 0 C0 0.66 0 1.32 0 2 C-6.435 4.97 -6.435 4.97 -13 8 C-13.66 7.34 -14.32 6.68 -15 6 C-13.07010782 4.80017556 -11.13080772 3.61547182 -9.1875 2.4375 C-8.10855469 1.77621094 -7.02960938 1.11492187 -5.91796875 0.43359375 C-3 -1 -3 -1 0 0 Z " fill="#7DE1E1" transform="translate(512,226)"/>
<path d="M0 0 C3.875 1.75 3.875 1.75 5 4 C5.598125 4.2475 6.19625 4.495 6.8125 4.75 C9.89654517 6.51231152 11.18036231 9.01059522 13 12 C8.942959 11.46960703 7.05155434 9.42356448 4.25 6.5625 C3.45078125 5.75941406 2.6515625 4.95632813 1.828125 4.12890625 C0 2 0 2 0 0 Z " fill="#30959D" transform="translate(614,404)"/>
<path d="M0 0 C0.99 0.33 1.98 0.66 3 1 C-0.80770026 4.23077598 -4.52729632 6.8043091 -9 9 C-11.21484375 8.60546875 -11.21484375 8.60546875 -13 8 C-10.90320896 6.63304778 -8.7989062 5.28153009 -6.6875 3.9375 C-6.09259766 3.54755859 -5.49769531 3.15761719 -4.88476562 2.75585938 C-3.30390365 1.75788505 -1.65405288 0.87131304 0 0 Z " fill="#6ED7D8" transform="translate(507,217)"/>
<path d="M0 0 C0.33 0 0.66 0 1 0 C1.875 2.5 1.875 2.5 2 6 C0.29572101 8.92611592 -1.77274038 11.45640495 -4 14 C-4.66 13.67 -5.32 13.34 -6 13 C-4.02 8.71 -2.04 4.42 0 0 Z " fill="#4EA4AC" transform="translate(423,439)"/>
<path d="M0 0 C2 2 2 2 2.1953125 5.58984375 C2.18200353 7.0391909 2.15813524 8.48847055 2.125 9.9375 C2.11597656 10.66646484 2.10695313 11.39542969 2.09765625 12.14648438 C2.07261687 14.09776712 2.03685175 16.0489046 2 18 C2 18.99 2 19.98 2 21 C0.35 21 -1.3 21 -3 21 C-2.01 19.515 -2.01 19.515 -1 18 C-0.63648496 15.97457852 -0.63648496 15.97457852 -0.5859375 13.76953125 C-0.54726563 12.96708984 -0.50859375 12.16464844 -0.46875 11.33789062 C-0.4378125 10.50451172 -0.406875 9.67113281 -0.375 8.8125 C-0.33632813 7.96751953 -0.29765625 7.12253906 -0.2578125 6.25195312 C-0.16363721 4.16832476 -0.08073325 2.08419247 0 0 Z " fill="#57D1D2" transform="translate(512,197)"/>
<path d="M0 0 C-1 3 -1 3 -3.50390625 4.38671875 C-4.51324219 4.81597656 -5.52257812 5.24523437 -6.5625 5.6875 C-7.57441406 6.12449219 -8.58632813 6.56148437 -9.62890625 7.01171875 C-10.41136719 7.33785156 -11.19382812 7.66398438 -12 8 C-12 7.01 -12 6.02 -12 5 C-10.37750059 4.16180842 -8.75191503 3.3295884 -7.125 2.5 C-6.22007812 2.0359375 -5.31515625 1.571875 -4.3828125 1.09375 C-2 0 -2 0 0 0 Z " fill="#6AD2D7" transform="translate(475,236)"/>
<path d="M0 0 C0 0.66 0 1.32 0 2 C-2.16967689 2.95465783 -3.56328793 3.14401212 -5.82421875 2.3984375 C-7.5684743 1.64129615 -9.28627131 0.82390802 -11 0 C-11 -0.33 -11 -0.66 -11 -1 C-3.57142857 -2.42857143 -3.57142857 -2.42857143 0 0 Z " fill="#CCCDCF" transform="translate(521,642)"/>
<path d="M0 0 C3.99996286 1.33332095 4.83782337 3.4957827 7 7 C6.67 7.66 6.34 8.32 6 9 C3.36 6.69 0.72 4.38 -2 2 C-1.34 1.34 -0.68 0.68 0 0 Z " fill="#32979B" transform="translate(585,443)"/>
<path d="M0 0 C1.32 0.33 2.64 0.66 4 1 C2.92598892 3.91517292 2.22189824 5.77810176 0 8 C-2.625 7.625 -2.625 7.625 -5 7 C-4.0409375 6.6596875 -4.0409375 6.6596875 -3.0625 6.3125 C-0.72806339 5.14749104 -0.72806339 5.14749104 -0.25 2.375 C-0.1675 1.59125 -0.085 0.8075 0 0 Z " fill="#4DAFB6" transform="translate(584,542)"/>
<path d="M0 0 C-4.62 0 -9.24 0 -14 0 C-13.67 -0.66 -13.34 -1.32 -13 -2 C-7.63571766 -3.59478664 -4.91557549 -2.45778775 0 0 Z " fill="#44B5B6" transform="translate(671,237)"/>
<path d="M0 0 C0.66 0 1.32 0 2 0 C1.42424336 3.35250701 0.40693737 4.93818629 -2.0625 7.25 C-2.88427734 8.03117187 -2.88427734 8.03117187 -3.72265625 8.828125 C-4.14417969 9.21484375 -4.56570313 9.6015625 -5 10 C-5.66 9.67 -6.32 9.34 -7 9 C-5.88266271 7.49428343 -4.75589965 5.99555708 -3.625 4.5 C-2.99851562 3.6646875 -2.37203125 2.829375 -1.7265625 1.96875 C-1.15679688 1.3190625 -0.58703125 0.669375 0 0 Z " fill="#45AFB2" transform="translate(709,314)"/>
<path d="M0 0 C-3.20336822 2.83374881 -5.78087253 3.5205537 -10 4 C-10.33 3.34 -10.66 2.68 -11 2 C-9.73392393 1.46770674 -8.46189588 0.94955456 -7.1875 0.4375 C-6.47980469 0.14746094 -5.77210938 -0.14257812 -5.04296875 -0.44140625 C-3 -1 -3 -1 0 0 Z " fill="#6AD0D2" transform="translate(422,269)"/>
<path d="M0 0 C0.66 0 1.32 0 2 0 C3.42857143 8.42857143 3.42857143 8.42857143 1 13 C0.67 13 0.34 13 0 13 C0 8.71 0 4.42 0 0 Z " fill="#36949C" transform="translate(593,406)"/>
<path d="M0 0 C3.2286292 0.4983319 5.53418112 1.79721773 8.25 3.5625 C8.95640625 4.01753906 9.6628125 4.47257813 10.390625 4.94140625 C11.18726563 5.46541016 11.18726563 5.46541016 12 6 C11.34 6.66 10.68 7.32 10 8 C8.72881136 7.20890398 7.45806377 6.41709922 6.1875 5.625 C5.47980469 5.18414062 4.77210938 4.74328125 4.04296875 4.2890625 C2.34567961 3.21811524 0.66985642 2.11323761 -1 1 C-0.67 0.67 -0.34 0.34 0 0 Z " fill="#3FC8CE" transform="translate(511,195)"/>
<path d="M0 0 C-1 3 -1 3 -2.75 4.1875 C-5.29960574 5.10819096 -7.30923081 5.14948718 -10 5 C-10 4.34 -10 3.68 -10 3 C-8.70990357 2.49596232 -7.41786211 1.99690074 -6.125 1.5 C-5.04605469 1.08234375 -5.04605469 1.08234375 -3.9453125 0.65625 C-2 0 -2 0 0 0 Z " fill="#4CBEC9" transform="translate(520,623)"/>
<path d="M0 0 C0.66 0.66 1.32 1.32 2 2 C0.35 3.32 -1.3 4.64 -3 6 C-4.32 5.34 -5.64 4.68 -7 4 C-4.69 2.68 -2.38 1.36 0 0 Z " fill="#E3E6E8" transform="translate(524,622)"/>
<path d="M0 0 C0 3.60573896 -0.81707462 4.41336566 -3 7.1875 C-3.556875 7.90292969 -4.11375 8.61835937 -4.6875 9.35546875 C-5.120625 9.89816406 -5.55375 10.44085937 -6 11 C-6.66 10.67 -7.32 10.34 -8 10 C-5.36 6.7 -2.72 3.4 0 0 Z " fill="#38A5AC" transform="translate(615,523)"/>
<path d="M0 0 C-0.5259375 0.804375 -0.5259375 0.804375 -1.0625 1.625 C-2.28924249 4.73274763 -1.72856431 6.79431703 -1 10 C-2.32 9.34 -3.64 8.68 -5 8 C-5.36625971 3.48279689 -5.36625971 3.48279689 -3.625 1.1875 C-2 0 -2 0 0 0 Z " fill="#53B7BD" transform="translate(526,521)"/>
<path d="M0 0 C0.268125 0.556875 0.53625 1.11375 0.8125 1.6875 C1.99898377 4.0839757 1.99898377 4.0839757 3.625 6.5625 C5 9 5 9 5 12 C4.34 12 3.68 12 3 12 C1.68 8.37 0.36 4.74 -1 1 C-0.67 0.67 -0.34 0.34 0 0 Z " fill="#33969D" transform="translate(364,472)"/>
<path d="M0 0 C3.96 1.98 3.96 1.98 8 4 C6.02 4.99 6.02 4.99 4 6 C2 4.6875 2 4.6875 0 3 C0 2.01 0 1.02 0 0 Z " fill="#DCE0E0" transform="translate(505,625)"/>
<path d="M0 0 C0.33 0.66 0.66 1.32 1 2 C0.67 2.66 0.34 3.32 0 4 C1.65 4 3.3 4 5 4 C2 6 2 6 -2 6 C-2.33 4.35 -2.66 2.7 -3 1 C-2.01 0.67 -1.02 0.34 0 0 Z " fill="#46A7AC" transform="translate(409,502)"/>
<path d="M0 0 C-1.44077046 3.36179774 -3.24750021 5.59156268 -6 8 C-6.66 8 -7.32 8 -8 8 C-8 6.35 -8 4.7 -8 3 C-7.67 3.66 -7.34 4.32 -7 5 C-5.824375 3.7625 -5.824375 3.7625 -4.625 2.5 C-2 0 -2 0 0 0 Z " fill="#358B95" transform="translate(387,436)"/>
<path d="M0 0 C-2.62198774 2.15377564 -4.64404172 3.40072174 -8 4 C-8 3.34 -8 2.68 -8 2 C-8.66 1.67 -9.32 1.34 -10 1 C-3.71428571 -1.42857143 -3.71428571 -1.42857143 0 0 Z " fill="#68CCCF" transform="translate(405,275)"/>
<path d="M0 0 C-3.26545761 1.88391785 -6.28111761 2.49287967 -10 3 C-10 2.01 -10 1.02 -10 0 C-6.42355152 -1.2380014 -3.66305234 -0.74926071 0 0 Z " fill="#69C2C8" transform="translate(375,276)"/>
<path d="M0 0 C0.33 0 0.66 0 1 0 C1 2.31 1 4.62 1 7 C2.98 6.34 4.96 5.68 7 5 C5.35 6.65 3.7 8.3 2 10 C1.34 9.67 0.68 9.34 0 9 C0 6.03 0 3.06 0 0 Z " fill="#66C8CB" transform="translate(471,566)"/>
<path d="M0 0 C-3.20380017 2.13586678 -4.01939967 2.23132175 -7.6875 2.125 C-8.89986328 2.09792969 -8.89986328 2.09792969 -10.13671875 2.0703125 C-11.05904297 2.03550781 -11.05904297 2.03550781 -12 2 C-7.66032699 -0.21504143 -4.80574417 -1.54470348 0 0 Z " fill="#49A9AE" transform="translate(397,521)"/>
<path d="M0 0 C2.31 0 4.62 0 7 0 C7.33 0.66 7.66 1.32 8 2 C6.02 2.66 4.04 3.32 2 4 C1.34 2.68 0.68 1.36 0 0 Z " fill="#54B9BD" transform="translate(431,538)"/>
<path d="M0 0 C1.32 0.66 2.64 1.32 4 2 C3.67 2.99 3.34 3.98 3 5 C1.35 5.33 -0.3 5.66 -2 6 C-1.34 4.02 -0.68 2.04 0 0 Z " fill="#3FA4AA" transform="translate(728,285)"/>
<path d="M0 0 C0.33 0 0.66 0 1 0 C1.17835515 4.54805635 0.99785435 7.8794254 -1 12 C-1.66 11.34 -2.32 10.68 -3 10 C-2.625 8 -2.625 8 -2 6 C-2 5.34 -2 4.68 -2 4 C-1.34 4 -0.68 4 0 4 C0 2.68 0 1.36 0 0 Z " fill="#3D9D9F" transform="translate(744,262)"/>
<path d="M0 0 C2.64 0.33 5.28 0.66 8 1 C6 3 6 3 2.875 3.125 C1.451875 3.063125 1.451875 3.063125 0 3 C0 2.01 0 1.02 0 0 Z " fill="#CDCDD0" transform="translate(502,641)"/>
<path d="M0 0 C1.65 1.65 3.3 3.3 5 5 C4.01 5.66 3.02 6.32 2 7 C0.4375 5.1875 0.4375 5.1875 -1 3 C-0.67 2.01 -0.34 1.02 0 0 Z " fill="#278E96" transform="translate(289,520)"/>
<path d="M0 0 C2.97 0 5.94 0 9 0 C7.25 1.5625 7.25 1.5625 5 3 C2.8125 2.8125 2.8125 2.8125 1 2 C0.67 1.34 0.34 0.68 0 0 Z " fill="#ECF6F7" transform="translate(620,483)"/>
<path d="M0 0 C0.66 0.33 1.32 0.66 2 1 C1.34 2.32 0.68 3.64 0 5 C-1.32 5 -2.64 5 -4 5 C-2.68 3.35 -1.36 1.7 0 0 Z " fill="#25848D" transform="translate(332,402)"/>
<path d="M0 0 C0.99 0.33 1.98 0.66 3 1 C2.34 1.66 1.68 2.32 1 3 C0.29289322 4.64991582 -0.37943989 6.31562256 -1 8 C-1.33 8 -1.66 8 -2 8 C-2.125 5.125 -2.125 5.125 -2 2 C-1.34 1.34 -0.68 0.68 0 0 Z " fill="#23868F" transform="translate(652,369)"/>
<path d="M0 0 C2.46800047 1.15173355 4.04783565 2.04783565 6 4 C5.67 4.66 5.34 5.32 5 6 C4.01 5.67 3.02 5.34 2 5 C0.8125 2.4375 0.8125 2.4375 0 0 Z " fill="#319DA2" transform="translate(380,508)"/>
<path d="M0 0 C-0.66 1.65 -1.32 3.3 -2 5 C-3.32 4.67 -4.64 4.34 -6 4 C-6 3.34 -6 2.68 -6 2 C-2.25 0 -2.25 0 0 0 Z " fill="#44BDBE" transform="translate(619,232)"/>
</svg>
